if (_typeface_js && _typeface_js.loadFace) _typeface_js.loadFace({"glyphs":{"S":{"x_min":55.5625,"x_max":636.15625,"ha":692,"o":"m 636 256 q 555 454 636 375 q 479 511 526 483 q 366 569 431 540 q 227 644 262 616 q 166 768 166 697 q 225 895 166 847 q 361 941 279 941 q 487 911 438 941 q 554 843 526 888 l 608 866 q 361 997 536 997 q 183 933 255 997 q 109 768 109 870 q 181 602 109 665 q 343 511 225 563 q 445 461 405 483 q 505 420 486 438 q 579 256 579 355 q 516 98 579 152 q 348 45 455 45 q 112 223 161 45 l 55 204 q 348 -11 120 -11 q 476 8 422 -11 q 636 256 636 68 "},"¦":{"x_min":75,"x_max":123.625,"ha":185,"o":"m 123 605 l 123 1048 l 75 1048 l 75 605 l 123 605 m 123 0 l 123 454 l 75 454 l 75 0 l 123 0 "},"/":{"x_min":31.953125,"x_max":377.8125,"ha":399,"o":"m 377 1012 l 323 1012 l 31 0 l 88 0 l 377 1012 "},"y":{"x_min":38.890625,"x_max":587.546875,"ha":618,"o":"m 587 573 l 525 573 l 313 120 l 100 573 l 38 573 l 280 52 l 131 -269 l 195 -269 l 587 573 "},"Á":{"x_min":43.0625,"x_max":836.171875,"ha":879,"o":"m 591 1201 l 563 1229 l 409 1073 l 436 1047 l 591 1201 m 836 0 l 438 1023 l 43 0 l 98 0 l 213 297 l 665 297 l 779 0 l 836 0 m 641 354 l 236 354 l 438 879 l 641 354 "},"g":{"x_min":48.609375,"x_max":630.609375,"ha":708,"o":"m 630 12 l 630 573 l 573 573 l 573 473 q 344 581 481 581 q 133 495 219 581 q 48 286 48 411 q 134 75 48 161 q 344 -9 219 -9 q 573 98 483 -9 l 573 13 q 513 -152 573 -93 q 348 -212 455 -212 q 212 -186 269 -212 q 125 -84 140 -152 l 68 -84 q 348 -269 113 -269 q 552 -191 475 -269 q 630 12 630 -113 m 584 286 q 513 115 584 186 q 344 45 444 45 q 175 116 245 45 q 104 286 104 187 q 175 456 104 386 q 344 526 244 526 q 513 455 443 526 q 584 286 584 384 "},"²":{"x_min":141.671875,"x_max":412.53125,"ha":544,"o":"m 412 911 q 373 997 412 963 q 281 1030 333 1030 q 195 1000 234 1030 q 151 925 158 972 l 179 925 q 281 1005 205 1005 q 354 977 322 1005 q 386 911 386 950 q 359 833 386 873 l 141 580 l 411 580 l 411 605 l 197 605 l 326 751 q 386 823 375 807 q 412 911 412 868 "},"–":{"x_min":58.34375,"x_max":462.53125,"ha":517,"o":"m 462 338 l 462 395 l 58 395 l 58 338 l 462 338 "},"ë":{"x_min":47.21875,"x_max":640.328125,"ha":681,"o":"m 483 722 q 437 768 472 768 q 391 722 391 759 q 405 688 393 701 q 437 676 422 676 q 483 722 483 676 m 293 722 q 247 768 281 768 q 201 722 201 759 q 215 688 202 701 q 247 676 231 676 q 293 722 293 676 m 640 298 q 555 504 640 425 q 344 583 472 583 q 130 498 215 583 q 47 286 47 415 q 131 73 47 158 q 344 -11 215 -11 q 441 2 398 -11 q 608 141 554 38 l 556 165 q 450 63 509 88 q 344 44 402 44 q 165 113 230 44 q 102 298 102 181 l 640 298 m 576 352 l 111 352 q 344 527 166 527 q 494 480 429 527 q 576 352 562 431 "},"ƒ":{"x_min":44.453125,"x_max":775.0625,"ha":825,"o":"m 244 736 l 244 0 l 579 0 l 579 56 l 300 56 l 300 991 l 244 991 l 244 888 l 240 893 q 159 927 206 927 q 79 893 113 927 q 44 812 44 858 q 79 732 44 766 q 159 697 113 697 q 240 732 206 697 l 244 736 m 244 829 l 244 798 q 219 754 240 775 q 159 727 193 727 q 100 754 126 727 q 73 813 73 780 q 100 873 73 847 q 159 900 126 900 q 219 873 193 900 q 244 829 240 852 m 143 790 q 152 768 143 777 q 173 759 161 759 q 195 768 186 759 q 204 790 204 777 q 195 811 204 802 q 173 820 186 820 q 152 811 161 820 q 143 790 143 802 m 775 812 q 740 893 775 858 q 659 927 705 927 q 579 893 613 927 q 544 812 544 858 q 579 732 544 766 q 659 697 613 697 q 740 732 705 697 q 775 812 775 766 m 745 813 q 719 754 745 780 q 659 727 693 727 q 600 754 626 727 q 573 813 573 780 q 600 873 573 847 q 659 900 626 900 q 719 873 693 900 q 745 813 745 847 m 644 786 q 653 764 644 773 q 675 755 662 755 q 696 764 687 755 q 705 786 705 773 q 696 807 705 798 q 675 816 687 816 q 653 807 662 816 q 644 786 644 798 m 494 -206 l 469 -176 q 351 -227 418 -227 q 225 -173 279 -227 l 195 -206 q 345 -268 252 -268 q 494 -206 441 -268 "},"Î":{"x_min":-36.109375,"x_max":300.03125,"ha":267,"o":"m 300 1051 l 133 1219 l -36 1051 l -5 1022 l 133 1159 l 272 1022 l 300 1051 m 162 0 l 162 991 l 106 991 l 106 0 l 162 0 "},"e":{"x_min":47.21875,"x_max":640.328125,"ha":681,"o":"m 640 298 q 555 504 640 425 q 344 583 472 583 q 130 498 215 583 q 47 286 47 415 q 131 73 47 158 q 344 -11 215 -11 q 441 2 398 -11 q 608 141 554 38 l 556 165 q 450 63 509 88 q 344 44 402 44 q 165 113 230 44 q 102 298 102 181 l 640 298 m 576 352 l 111 352 q 344 527 166 527 q 494 480 429 527 q 576 352 562 431 "},"Ã":{"x_min":43.0625,"x_max":836.171875,"ha":872,"o":"m 661 1111 l 620 1141 q 580 1108 591 1112 l 563 1102 l 531 1102 l 483 1108 l 443 1125 q 430 1132 436 1129 q 419 1137 425 1134 q 347 1151 381 1151 q 215 1080 254 1151 l 254 1050 q 340 1095 288 1095 q 390 1087 370 1095 l 430 1070 q 537 1045 472 1045 q 612 1065 580 1045 l 634 1083 l 661 1111 m 836 0 l 438 1023 l 43 0 l 98 0 l 213 297 l 665 297 l 779 0 l 836 0 m 641 354 l 236 354 l 438 879 l 641 354 "},"J":{"x_min":41.671875,"x_max":354.1875,"ha":438,"o":"m 354 197 l 354 991 l 297 991 l 297 200 q 193 45 297 45 q 90 109 125 45 l 41 79 q 194 -11 90 -11 q 354 197 354 -11 "},"»":{"x_min":75,"x_max":573.65625,"ha":610,"o":"m 573 354 l 311 616 l 283 587 l 516 354 l 288 126 l 318 97 l 573 354 m 365 354 l 102 616 l 75 587 l 308 354 l 80 126 l 109 97 l 365 354 "},"©":{"x_min":47.21875,"x_max":777.84375,"ha":817,"o":"m 777 540 q 670 800 777 693 q 412 905 562 905 q 152 798 259 905 q 47 540 47 693 q 154 280 47 387 q 412 175 259 175 q 672 281 565 175 q 777 540 777 390 m 751 541 q 652 301 751 400 q 413 204 555 204 q 173 302 272 204 q 76 541 76 400 q 175 782 76 683 q 413 879 272 879 q 654 780 555 879 q 751 541 751 683 m 544 427 l 544 461 q 412 406 495 406 q 298 448 337 406 q 259 547 259 488 q 304 648 259 611 q 412 686 347 686 l 452 682 q 491 669 470 680 l 519 655 l 544 638 l 544 672 l 516 688 l 493 700 q 412 713 465 713 q 283 668 334 713 q 231 547 231 625 q 284 425 231 473 q 412 379 336 379 q 544 427 495 379 "},"ò":{"x_min":48.609375,"x_max":640.328125,"ha":692,"o":"m 404 683 l 218 869 l 187 836 l 369 651 l 404 683 m 640 286 q 554 497 640 411 q 344 583 468 583 q 134 495 219 583 q 48 286 48 409 q 134 75 48 161 q 344 -9 219 -9 q 555 76 469 -9 q 640 286 640 161 m 584 286 q 513 115 584 186 q 344 45 444 45 q 175 116 245 45 q 104 286 104 187 q 176 455 104 383 q 344 527 247 527 q 515 456 445 527 q 584 286 584 387 "},"^":{"x_min":56.953125,"x_max":438.921875,"ha":489,"o":"m 438 523 l 270 913 l 225 913 l 56 523 l 93 523 l 248 809 l 401 523 l 438 523 "},"\f":{"x_min":93.0625,"x_max":429.203125,"ha":525,"o":"m 429 776 l 400 807 l 261 669 l 122 807 l 93 776 l 261 609 l 429 776 "},"«":{"x_min":52.78125,"x_max":544.484375,"ha":610,"o":"m 544 587 l 515 616 l 254 354 l 509 97 l 538 126 l 309 354 l 544 587 m 343 587 l 315 616 l 52 354 l 308 97 l 337 126 l 109 354 l 343 587 "},"D":{"x_min":105.5625,"x_max":879.234375,"ha":956,"o":"m 879 497 q 761 841 879 701 q 436 991 636 991 l 105 991 l 105 0 l 436 0 q 762 150 637 0 q 879 497 879 291 m 822 497 q 701 170 822 293 q 436 56 588 56 l 161 56 l 161 936 l 436 936 q 720 802 612 936 q 822 497 822 679 "},"":{"x_min":112.515625,"x_max":465.3125,"ha":544,"o":"m 312 581 l 312 1029 l 229 1029 l 212 1002 l 287 1002 l 287 581 l 312 581 m 465 491 l 465 527 l 112 527 l 112 491 l 465 491 m 418 330 q 379 416 418 383 q 287 450 338 450 q 201 419 240 450 q 156 344 163 391 l 184 344 q 287 425 211 425 q 359 397 327 425 q 391 330 391 372 q 365 252 391 293 l 147 0 l 416 0 l 416 25 l 202 25 l 331 170 q 391 243 380 226 q 418 330 418 287 "},"":{"x_min":73.609375,"x_max":804.234375,"ha":850,"o":"m 466 0 l 466 991 l 279 991 l 241 934 l 409 934 l 409 0 l 466 0 m 304 715 q 269 795 304 761 q 188 830 234 830 q 108 795 143 830 q 73 715 73 761 q 108 634 73 669 q 188 600 143 600 q 269 634 234 600 q 304 715 304 669 m 275 716 q 248 657 275 683 q 188 630 222 630 q 129 657 155 630 q 102 716 102 683 q 129 776 102 750 q 188 802 155 802 q 248 776 222 802 q 275 716 275 750 m 804 715 q 769 795 804 761 q 688 830 734 830 q 608 795 643 830 q 573 715 573 761 q 608 634 573 669 q 688 600 643 600 q 769 634 734 600 q 804 715 804 669 m 775 716 q 748 657 775 683 q 688 630 722 630 q 629 657 655 630 q 602 716 602 683 q 629 776 602 750 q 688 802 655 802 q 748 776 722 802 q 775 716 775 750 m 172 693 q 181 671 172 680 q 202 662 190 662 q 224 671 215 662 q 233 693 233 680 q 224 714 233 705 q 202 723 215 723 q 181 714 190 723 q 172 693 172 705 m 673 688 q 682 667 673 676 q 704 658 691 658 q 725 667 716 658 q 734 688 734 676 q 725 710 734 701 q 704 719 716 719 q 682 710 691 719 q 673 688 673 701 m 609 -98 l 580 -68 l 441 -205 l 302 -68 l 273 -98 l 441 -265 l 609 -98 "},"∙":{"x_min":95.84375,"x_max":187.515625,"ha":383,"o":"m 187 450 q 141 495 176 495 q 95 450 95 487 q 109 416 97 429 q 141 404 126 404 q 187 450 187 404 "},"ÿ":{"x_min":38.890625,"x_max":587.546875,"ha":618,"o":"m 459 722 q 413 768 448 768 q 368 722 368 759 q 381 688 369 701 q 413 676 398 676 q 459 722 459 676 m 269 722 q 223 768 258 768 q 177 722 177 759 q 191 688 179 701 q 223 676 208 676 q 269 722 269 676 m 587 573 l 525 573 l 313 120 l 100 573 l 38 573 l 280 52 l 131 -269 l 195 -269 l 587 573 "},"":{"x_min":79.171875,"x_max":372.25,"ha":442,"o":"m 372 338 l 372 395 l 79 395 l 79 338 l 372 338 "},"í":{"x_min":101.390625,"x_max":319.46875,"ha":256,"o":"m 319 836 l 287 869 l 101 683 l 136 651 l 319 836 m 158 0 l 158 573 l 101 573 l 101 0 l 158 0 "},"ˆ":{"x_min":100.015625,"x_max":433.375,"ha":525,"o":"m 433 688 l 266 855 l 100 688 l 127 658 l 266 795 l 405 658 l 433 688 "},"w":{"x_min":40.28125,"x_max":918.125,"ha":950,"o":"m 918 573 l 854 573 l 662 130 l 479 591 l 294 129 l 101 573 l 40 573 l 297 -25 l 479 433 l 658 -25 l 918 573 "},"$":{"x_min":50,"x_max":620.890625,"ha":658,"o":"m 620 270 q 379 558 620 463 l 379 940 q 526 843 480 926 l 579 866 q 379 995 513 995 l 379 1069 l 323 1069 l 323 995 q 165 929 227 995 q 102 768 102 863 q 165 605 102 665 q 323 519 212 558 l 323 47 q 106 223 154 47 l 50 204 q 147 45 75 102 q 323 -11 220 -11 l 323 -84 l 379 -84 l 379 -9 q 562 73 497 -9 q 620 270 620 148 m 323 580 q 211 645 247 611 q 161 762 161 691 q 205 883 161 834 q 323 940 247 929 l 323 580 m 563 270 q 520 115 563 175 q 379 47 473 47 l 379 497 q 563 270 563 422 "},"\\":{"x_min":31.953125,"x_max":370.859375,"ha":390,"o":"m 370 0 l 87 991 l 31 991 l 316 0 l 370 0 "},"":{"x_min":31.953125,"x_max":762.5625,"ha":795,"o":"m 423 197 l 423 991 l 366 991 l 366 200 q 262 45 366 45 q 159 109 194 45 l 111 79 q 263 -11 159 -11 q 423 197 423 -11 m 262 854 q 227 934 262 900 q 147 969 193 969 q 66 934 101 969 q 31 854 31 900 q 66 773 31 808 q 147 738 101 738 q 227 773 193 738 q 262 854 262 808 m 233 855 q 206 795 233 822 q 147 769 180 769 q 87 795 113 769 q 61 855 61 822 q 87 915 61 888 q 147 941 113 941 q 206 915 180 941 q 233 855 233 888 m 762 854 q 727 934 762 900 q 647 969 693 969 q 566 934 601 969 q 531 854 531 900 q 566 773 531 808 q 647 738 601 738 q 727 773 693 738 q 762 854 762 808 m 733 855 q 707 795 733 822 q 647 769 680 769 q 587 795 613 769 q 561 855 561 822 q 587 915 561 888 q 647 941 613 941 q 707 915 680 941 q 733 855 733 888 m 130 832 q 139 810 130 819 q 161 801 148 801 q 182 810 173 801 q 191 832 191 819 q 182 853 191 844 q 161 862 173 862 q 139 853 148 862 q 130 832 130 844 m 632 827 q 641 806 632 815 q 662 797 650 797 q 684 806 675 797 q 693 827 693 815 q 684 849 693 840 q 662 858 675 858 q 641 849 650 858 q 632 827 632 840 "},"Ì":{"x_min":-16.671875,"x_max":179.1875,"ha":267,"o":"m 179 1072 l 12 1240 l -16 1209 l 148 1044 l 179 1072 m 162 0 l 162 991 l 106 991 l 106 0 l 162 0 "},"µ":{"x_min":84.734375,"x_max":970.90625,"ha":1090,"o":"m 686 736 q 601 926 686 854 q 398 1000 516 1000 q 177 908 261 1000 q 105 765 115 837 l 168 765 q 222 872 183 829 q 398 944 286 944 q 559 884 490 944 q 629 736 629 823 q 570 562 629 645 l 84 0 l 684 0 l 684 56 l 209 56 l 494 379 q 558 453 533 423 q 595 498 583 483 q 686 736 686 615 m 470 618 q 436 698 470 663 q 355 733 401 733 q 275 698 309 733 q 240 618 240 663 q 275 537 240 572 q 355 502 309 502 q 436 537 401 502 q 470 618 470 572 m 441 619 q 415 559 441 586 q 355 533 388 533 q 295 559 322 533 q 269 619 269 586 q 295 679 269 652 q 355 705 322 705 q 415 679 388 705 q 441 619 441 652 m 970 618 q 936 698 970 663 q 855 733 901 733 q 775 698 809 733 q 740 618 740 663 q 775 537 740 572 q 855 502 809 502 q 936 537 901 502 q 970 618 970 572 m 941 619 q 915 559 941 586 q 855 533 888 533 q 795 559 822 533 q 769 619 769 586 q 795 679 769 652 q 855 705 822 705 q 915 679 888 705 q 941 619 941 652 m 338 595 q 347 574 338 583 q 369 565 356 565 q 391 574 381 565 q 400 595 400 583 q 391 617 400 608 q 369 626 381 626 q 347 617 356 626 q 338 595 338 608 m 840 591 q 849 570 840 579 q 870 561 858 561 q 892 570 883 561 q 901 591 901 579 q 892 613 901 604 q 870 622 883 622 q 849 613 858 622 q 840 591 840 604 m 813 -179 l 788 -148 q 670 -200 737 -200 q 544 -145 598 -200 l 515 -179 q 665 -240 572 -240 q 813 -179 761 -240 "},"Ç":{"x_min":69.453125,"x_max":927.859375,"ha":975,"o":"m 927 106 l 927 172 q 794 87 847 113 q 579 43 702 43 q 252 170 380 43 q 126 495 126 297 q 254 822 126 694 q 579 950 381 950 q 800 907 694 950 q 927 829 869 877 l 927 900 q 809 968 870 944 q 579 1005 707 1005 q 211 862 354 1005 q 69 495 69 720 q 202 138 69 277 q 540 -13 351 -13 l 518 -65 q 550 -86 536 -69 q 563 -118 563 -102 q 525 -151 563 -151 q 469 -125 491 -151 l 447 -170 q 541 -209 486 -209 q 626 -126 626 -209 q 583 -52 626 -83 l 598 -13 q 813 29 722 -13 l 859 58 l 927 106 "},"’":{"x_min":87.5,"x_max":161.125,"ha":219,"o":"m 161 859 l 161 1022 l 87 1022 l 87 922 l 133 922 l 133 859 q 108 794 133 820 l 136 794 q 161 859 161 825 "},"-":{"x_min":25,"x_max":318.078125,"ha":376,"o":"m 318 338 l 318 395 l 25 395 l 25 338 l 318 338 "},"Q":{"x_min":80.5625,"x_max":1101.484375,"ha":1142,"o":"m 1101 495 q 958 863 1101 720 q 590 1005 813 1005 q 222 862 365 1005 q 80 495 80 720 q 223 127 80 270 q 590 -13 365 -13 q 958 129 815 -13 q 1101 495 1101 270 m 1044 495 q 918 168 1044 294 q 590 43 790 43 q 263 170 391 43 q 137 495 137 297 q 265 822 137 694 q 590 950 390 950 q 918 822 790 950 q 1044 495 1044 695 m 884 -133 l 884 -76 l 591 -76 l 591 -133 l 884 -133 "},"M":{"x_min":31.953125,"x_max":1223.703125,"ha":1253,"o":"m 1223 0 l 965 1022 l 627 136 l 290 1020 l 31 0 l 88 0 l 301 834 l 627 -25 l 954 833 l 1165 0 l 1223 0 "},"C":{"x_min":69.453125,"x_max":927.859375,"ha":975,"o":"m 927 106 l 927 172 q 794 87 847 113 q 579 43 702 43 q 252 170 380 43 q 126 495 126 297 q 254 822 126 694 q 579 950 381 950 q 800 907 694 950 q 927 829 869 877 l 927 900 q 809 968 870 944 q 579 1005 707 1005 q 211 862 354 1005 q 69 495 69 720 q 212 127 69 270 q 579 -13 354 -13 q 616 -13 598 -13 q 650 -11 634 -12 q 861 58 783 1 l 927 106 "},"œ":{"x_min":48.609375,"x_max":1179.265625,"ha":1226,"o":"m 1179 298 q 1094 502 1179 426 q 883 580 1009 580 q 719 536 793 580 q 611 412 645 491 q 500 536 572 488 q 344 581 429 581 q 133 495 219 581 q 48 286 48 411 q 134 75 48 161 q 344 -9 219 -9 q 504 36 430 -9 q 611 159 575 80 q 720 33 648 79 q 883 -11 794 -11 q 980 2 937 -11 q 1147 141 1093 38 l 1095 165 q 988 63 1048 88 q 883 44 941 44 q 704 113 769 44 q 641 298 641 181 l 1179 298 m 1115 352 l 650 352 q 883 525 705 525 q 1051 463 986 525 q 1115 352 1101 416 m 584 286 q 513 115 584 186 q 344 45 444 45 q 175 116 245 45 q 104 286 104 187 q 175 456 104 386 q 344 526 244 526 q 513 455 443 526 q 584 286 584 384 "},"!":{"x_min":93.0625,"x_max":193.078125,"ha":283,"o":"m 169 205 l 169 991 l 113 991 l 113 205 l 169 205 m 193 44 q 177 79 188 68 q 143 94 162 94 q 93 44 93 86 q 143 -5 93 -5 q 193 44 193 2 "},"ç":{"x_min":65.28125,"x_max":537.546875,"ha":608,"o":"m 537 40 l 537 115 l 494 80 q 362 45 434 45 q 190 113 258 45 q 122 286 122 181 q 190 459 122 391 q 362 527 256 527 q 495 493 436 527 l 516 476 l 537 458 l 537 533 l 493 558 q 362 583 430 583 q 150 498 234 583 q 65 286 65 415 q 138 83 65 165 q 331 -11 212 1 l 313 -65 l 340 -86 q 354 -115 354 -100 l 351 -126 l 347 -134 q 325 -145 336 -145 q 297 -137 309 -145 l 275 -118 l 256 -166 q 327 -201 286 -201 q 386 -179 359 -201 q 411 -125 411 -156 q 373 -56 402 -70 l 391 -9 q 497 15 447 -9 l 537 40 "},"È":{"x_min":98.625,"x_max":575.046875,"ha":657,"o":"m 368 1072 l 201 1240 l 172 1209 l 337 1044 l 368 1072 m 575 0 l 575 56 l 155 56 l 155 512 l 575 512 l 575 573 l 155 573 l 155 934 l 575 934 l 575 991 l 98 991 l 98 0 l 575 0 "},"{":{"x_min":11.109375,"x_max":247.234375,"ha":268,"o":"m 247 -70 l 247 -19 q 151 2 177 -19 q 125 91 125 23 l 125 368 q 106 434 125 400 q 68 493 90 470 q 125 618 125 541 l 125 872 q 152 963 125 936 q 245 990 179 990 l 245 1041 q 112 1002 151 1041 q 73 872 73 965 l 73 618 q 11 493 73 543 q 52 441 43 461 q 73 368 73 401 l 73 88 q 113 -37 73 -4 q 247 -70 152 -70 "},"X":{"x_min":45.84375,"x_max":700.0625,"ha":736,"o":"m 700 0 l 408 508 l 683 991 l 618 991 l 372 562 l 127 991 l 62 991 l 337 512 l 45 0 l 109 0 l 370 459 l 634 0 l 700 0 "},"ô":{"x_min":48.609375,"x_max":640.328125,"ha":692,"o":"m 506 688 l 340 855 l 170 688 l 201 658 l 340 795 l 479 658 l 506 688 m 640 286 q 554 497 640 411 q 344 583 468 583 q 134 495 219 583 q 48 286 48 409 q 134 75 48 161 q 344 -9 219 -9 q 555 76 469 -9 q 640 286 640 161 m 584 286 q 513 115 584 186 q 344 45 444 45 q 175 116 245 45 q 104 286 104 187 q 176 455 104 383 q 344 527 247 527 q 515 456 445 527 q 584 286 584 387 "},"¼":{"x_min":105.5625,"x_max":462.53125,"ha":544,"o":"m 304 581 l 304 1029 l 220 1029 l 204 1002 l 279 1002 l 279 581 l 304 581 m 462 491 l 462 527 l 109 527 l 109 491 l 462 491 m 400 83 l 400 108 l 361 108 l 361 451 l 105 83 l 334 83 l 334 -1 l 361 -1 l 361 83 l 400 83 m 334 108 l 151 108 l 334 368 l 334 108 "},"#":{"x_min":44.453125,"x_max":725.0625,"ha":751,"o":"m 725 716 l 543 716 l 584 893 l 551 893 l 508 716 l 315 716 l 356 893 l 323 893 l 280 716 l 87 716 l 76 683 l 272 683 l 233 523 l 55 523 l 44 488 l 225 488 l 183 313 l 216 313 l 259 488 l 454 488 l 408 306 l 443 306 l 487 488 l 673 488 l 684 523 l 495 523 l 534 683 l 713 683 l 725 716 m 501 683 l 462 523 l 268 523 l 305 683 l 501 683 "},"Ê":{"x_min":98.625,"x_max":575.046875,"ha":657,"o":"m 509 1079 l 343 1247 l 175 1079 l 204 1050 l 343 1187 l 481 1050 l 509 1079 m 575 0 l 575 56 l 155 56 l 155 512 l 575 512 l 575 573 l 155 573 l 155 934 l 575 934 l 575 991 l 98 991 l 98 0 l 575 0 "},")":{"x_min":75,"x_max":227.796875,"ha":269,"o":"m 227 480 q 222 602 227 541 q 208 725 218 662 q 123 1047 180 895 l 75 1047 q 179 480 179 761 q 173 366 179 427 q 156 236 168 305 q 122 68 143 148 q 75 -86 102 -11 l 123 -86 q 227 480 227 181 "},"Å":{"x_min":43.0625,"x_max":836.171875,"ha":879,"o":"m 533 1129 q 505 1195 533 1168 q 438 1223 477 1223 q 372 1195 400 1223 q 344 1129 344 1168 q 372 1062 344 1090 q 438 1034 400 1034 q 505 1062 477 1034 q 533 1129 533 1090 m 836 0 l 438 1023 l 43 0 l 98 0 l 213 297 l 665 297 l 779 0 l 836 0 m 508 1130 q 486 1082 508 1104 q 438 1059 465 1059 q 388 1080 406 1059 q 369 1130 369 1100 q 390 1180 369 1159 q 438 1200 409 1200 q 487 1179 466 1200 q 508 1130 508 1158 m 641 354 l 236 354 l 438 879 l 641 354 "},"ø":{"x_min":48.609375,"x_max":640.328125,"ha":692,"o":"m 640 286 q 543 505 640 416 l 600 587 l 550 620 l 494 541 q 344 581 425 581 q 133 495 219 581 q 48 286 48 411 q 155 58 48 145 l 105 -13 l 152 -48 l 204 25 q 344 -9 268 -9 q 555 76 469 -9 q 640 286 640 161 m 584 286 q 513 115 584 186 q 344 45 444 45 l 288 51 l 262 59 l 237 70 l 511 459 q 584 286 584 390 m 462 495 l 187 104 q 104 286 104 176 q 175 456 104 386 q 344 526 244 526 q 462 495 405 526 "},"â":{"x_min":48.609375,"x_max":630.609375,"ha":708,"o":"m 506 688 l 340 855 l 170 688 l 201 658 l 340 795 l 479 658 l 506 688 m 630 0 l 630 573 l 573 573 l 573 473 q 344 581 481 581 q 133 495 219 581 q 48 286 48 411 q 134 75 48 161 q 344 -9 219 -9 q 573 98 483 -9 l 573 0 l 630 0 m 584 286 q 513 115 584 186 q 344 45 444 45 q 175 116 245 45 q 104 286 104 187 q 175 456 104 386 q 344 526 244 526 q 513 455 443 526 q 584 286 584 384 "},"}":{"x_min":20.828125,"x_max":256.96875,"ha":268,"o":"m 256 493 q 215 541 225 525 q 194 618 194 579 l 194 872 q 154 1001 194 961 q 22 1041 113 1041 l 22 990 q 115 963 88 990 q 143 872 143 936 l 143 618 q 158 545 143 576 q 200 493 173 515 q 143 368 143 431 l 143 91 q 116 1 143 23 q 20 -19 88 -19 l 20 -70 q 155 -37 115 -70 q 194 88 194 -4 l 194 368 q 216 443 194 404 q 256 493 233 473 "},"‰":{"x_min":29.171875,"x_max":1108.421875,"ha":1149,"o":"m 1108 159 q 1057 281 1108 230 q 934 333 1005 333 q 812 281 863 333 q 762 159 762 229 q 815 40 762 93 q 934 -11 866 -11 q 1058 38 1005 -11 q 1108 159 1108 86 m 413 794 q 362 916 413 865 q 240 968 311 968 q 118 916 169 968 q 68 794 68 863 q 120 675 68 727 q 240 623 172 623 q 363 673 311 623 q 413 794 413 720 m 829 991 l 759 991 l 29 0 l 98 0 l 829 991 m 691 159 q 640 281 691 230 q 518 333 588 333 q 395 281 447 333 q 345 159 345 229 q 398 40 345 93 q 518 -11 450 -11 q 641 38 588 -11 q 691 159 691 86 m 1051 159 q 1015 79 1051 115 q 934 45 979 45 q 852 77 888 45 q 819 159 819 115 q 854 241 819 206 q 934 276 887 276 q 1016 241 982 276 q 1051 159 1051 206 m 356 794 q 322 713 356 748 q 240 680 281 680 q 159 715 194 680 q 125 794 125 748 q 159 876 125 841 q 240 911 193 911 q 322 876 287 911 q 356 794 356 841 m 634 159 q 598 79 634 115 q 518 45 562 45 q 436 77 472 45 q 402 159 402 115 q 437 241 402 206 q 518 276 470 276 q 600 241 565 276 q 634 159 634 206 "},"Ä":{"x_min":43.0625,"x_max":836.171875,"ha":872,"o":"m 575 1105 q 529 1151 563 1151 q 483 1105 483 1143 q 497 1072 484 1084 q 529 1059 513 1059 q 575 1105 575 1059 m 384 1105 q 338 1151 373 1151 q 293 1105 293 1143 q 306 1072 294 1084 q 338 1059 323 1059 q 384 1105 384 1059 m 836 0 l 438 1023 l 43 0 l 98 0 l 213 297 l 665 297 l 779 0 l 836 0 m 641 354 l 236 354 l 438 879 l 641 354 "},"¸":{"x_min":100.015625,"x_max":270.859375,"ha":361,"o":"m 270 -130 q 218 -56 270 -73 l 237 0 l 175 0 l 152 -68 q 202 -116 202 -87 q 163 -150 202 -150 l 130 -140 q 113 -129 120 -134 q 100 -119 105 -125 l 100 -175 q 190 -209 138 -209 q 248 -187 226 -209 q 270 -130 270 -165 "},"a":{"x_min":48.609375,"x_max":630.609375,"ha":708,"o":"m 630 0 l 630 573 l 573 573 l 573 473 q 344 581 481 581 q 133 495 219 581 q 48 286 48 411 q 134 75 48 161 q 344 -9 219 -9 q 573 98 483 -9 l 573 0 l 630 0 m 584 286 q 513 115 584 186 q 344 45 444 45 q 175 116 245 45 q 104 286 104 187 q 175 456 104 386 q 344 526 244 526 q 513 455 443 526 q 584 286 584 384 "},"—":{"x_min":72.234375,"x_max":794.515625,"ha":857,"o":"m 794 338 l 794 395 l 72 395 l 72 338 l 794 338 "},"=":{"x_min":51.390625,"x_max":365.3125,"ha":411,"o":"m 365 423 l 365 480 l 51 480 l 51 423 l 365 423 m 365 254 l 365 309 l 51 309 l 51 254 l 365 254 "},"N":{"x_min":106.953125,"x_max":904.234375,"ha":993,"o":"m 904 -16 l 904 991 l 847 991 l 847 130 l 106 998 l 106 0 l 162 0 l 162 841 l 904 -16 "},"ú":{"x_min":84.734375,"x_max":512.546875,"ha":596,"o":"m 487 836 l 456 869 l 270 683 l 304 651 l 487 836 m 512 215 l 512 573 l 456 573 l 456 215 q 297 44 456 44 q 177 88 215 44 q 141 215 141 133 l 141 573 l 84 573 l 84 215 q 140 48 84 108 q 297 -11 195 -11 q 456 50 400 -11 q 512 215 512 109 "},"2":{"x_min":84.734375,"x_max":686.171875,"ha":757,"o":"m 686 736 q 601 926 686 854 q 398 1000 516 1000 q 177 908 261 1000 q 105 765 115 837 l 168 765 q 222 872 183 829 q 398 944 286 944 q 559 884 490 944 q 629 736 629 823 q 570 562 629 645 l 84 0 l 684 0 l 684 56 l 209 56 l 494 379 q 558 453 533 423 q 595 498 583 483 q 686 736 686 615 "},"ü":{"x_min":84.734375,"x_max":512.546875,"ha":596,"o":"m 437 722 q 391 768 426 768 q 345 722 345 759 q 359 688 347 701 q 391 676 376 676 q 437 722 437 676 m 247 722 q 201 768 236 768 q 155 722 155 759 q 169 688 156 701 q 201 676 186 676 q 247 722 247 676 m 512 215 l 512 573 l 456 573 l 456 215 q 297 44 456 44 q 177 88 215 44 q 141 215 141 133 l 141 573 l 84 573 l 84 215 q 140 48 84 108 q 297 -11 195 -11 q 456 50 400 -11 q 512 215 512 109 "},"¯":{"x_min":79.171875,"x_max":475.03125,"ha":546,"o":"m 475 658 l 475 708 l 79 708 l 79 658 l 475 658 "},"Z":{"x_min":54.171875,"x_max":725.0625,"ha":770,"o":"m 725 991 l 87 991 l 87 933 l 622 933 l 54 0 l 722 0 l 722 56 l 155 56 l 725 991 "},"u":{"x_min":84.734375,"x_max":512.546875,"ha":596,"o":"m 512 215 l 512 573 l 456 573 l 456 215 q 297 44 456 44 q 177 88 215 44 q 141 215 141 133 l 141 573 l 84 573 l 84 215 q 140 48 84 108 q 297 -11 195 -11 q 456 50 400 -11 q 512 215 512 109 "},"˜":{"x_min":77.78125,"x_max":523.65625,"ha":588,"o":"m 523 743 l 483 773 q 443 740 454 744 l 426 734 l 394 734 l 345 740 l 305 757 q 293 763 298 761 q 281 769 287 766 q 209 783 244 783 q 77 712 116 783 l 116 682 q 202 727 151 727 q 252 719 233 727 l 293 702 q 400 677 334 677 q 475 697 443 677 l 497 715 l 523 743 "},"Ó":{"x_min":69.453125,"x_max":1090.359375,"ha":1142,"o":"m 709 1201 l 683 1229 l 529 1073 l 555 1047 l 709 1201 m 1090 495 q 947 863 1090 720 q 579 1005 802 1005 q 211 862 354 1005 q 69 495 69 720 q 212 127 69 270 q 579 -13 354 -13 q 947 129 804 -13 q 1090 495 1090 270 m 1033 495 q 907 168 1033 294 q 579 43 779 43 q 252 170 380 43 q 126 495 126 297 q 254 822 126 694 q 579 950 381 950 q 907 822 779 950 q 1033 495 1033 695 "},"k":{"x_min":93.0625,"x_max":556.984375,"ha":579,"o":"m 556 0 l 219 337 l 479 595 l 398 595 l 150 348 l 150 1027 l 93 1027 l 93 0 l 150 0 l 150 266 l 181 298 l 481 0 l 556 0 "},"Ù":{"x_min":105.5625,"x_max":680.609375,"ha":771,"o":"m 436 1072 l 269 1240 l 240 1209 l 405 1044 l 436 1072 m 680 247 l 680 991 l 623 991 l 623 247 q 552 98 623 154 q 391 47 487 47 q 230 97 294 47 q 161 247 161 151 l 161 991 l 105 991 l 105 247 q 190 55 105 126 q 391 -9 270 -9 q 593 54 516 -9 q 680 247 680 126 "},"Ÿ":{"x_min":45.84375,"x_max":668.109375,"ha":710,"o":"m 491 1105 q 445 1151 480 1151 q 400 1105 400 1143 q 413 1072 401 1084 q 445 1059 430 1059 q 491 1105 491 1059 m 301 1105 q 255 1151 290 1151 q 209 1105 209 1143 q 223 1072 211 1084 q 255 1059 240 1059 q 301 1105 301 1059 m 668 991 l 602 991 l 355 562 l 111 991 l 45 991 l 327 495 l 327 0 l 384 0 l 384 495 l 668 991 "},"€":{"x_min":1.390625,"x_max":941.734375,"ha":975,"o":"m 923 379 l 923 434 l 143 434 q 140 465 141 450 q 140 495 140 480 q 140 522 140 509 q 143 548 141 536 l 923 548 l 923 605 l 151 605 q 268 822 176 732 q 593 950 393 950 q 813 907 708 950 q 941 829 883 877 l 941 900 q 823 968 884 944 q 593 1005 720 1005 q 225 862 368 1005 q 93 605 119 757 l 1 605 l 1 548 l 84 548 q 83 522 83 536 q 83 495 83 509 q 84 465 83 480 q 86 434 84 450 l 1 434 l 1 379 l 94 379 q 226 127 120 233 q 593 -13 368 -13 q 630 -13 612 -13 q 663 -11 648 -12 q 875 58 797 1 l 941 106 l 941 172 q 808 87 861 113 q 593 43 716 43 q 266 170 394 43 q 152 379 180 256 l 923 379 "},"¢":{"x_min":52.78125,"x_max":515.3125,"ha":588,"o":"m 515 651 l 515 719 q 443 759 484 747 q 359 775 405 775 l 359 843 l 301 843 l 301 773 q 119 680 187 759 q 52 487 52 602 q 115 305 52 381 q 301 209 191 209 l 301 127 l 359 127 l 359 208 l 404 212 l 445 222 q 512 255 487 238 l 512 319 q 359 262 430 262 l 359 715 q 443 695 397 715 l 479 675 l 515 651 m 301 263 q 163 338 215 277 q 113 487 113 398 q 165 638 113 575 q 301 713 218 701 l 301 263 "},"ß":{"x_min":30.5625,"x_max":701.4375,"ha":749,"o":"m 701 291 q 623 488 701 415 q 465 561 559 548 q 576 766 576 634 q 506 927 576 862 q 340 991 436 991 q 169 923 229 991 q 109 745 109 858 l 109 573 l 30 573 l 30 516 l 109 516 l 109 0 l 165 0 l 165 744 q 340 934 165 934 q 466 886 413 934 q 519 766 519 837 q 470 632 519 691 q 347 573 422 573 l 347 518 q 644 291 644 518 q 587 127 644 195 q 433 56 526 56 l 275 56 l 275 0 l 431 0 q 632 83 558 0 q 701 291 701 163 "},"":{"x_min":100.015625,"x_max":454.203125,"ha":544,"o":"m 404 704 q 316 823 404 798 q 400 926 400 845 q 365 1009 400 976 q 280 1040 330 1040 q 198 1011 231 1040 q 161 934 165 984 l 190 934 q 280 1013 202 1013 q 344 988 319 1013 q 369 926 369 965 l 363 891 l 347 865 q 283 841 323 841 l 256 841 l 256 805 l 283 805 l 312 800 q 340 783 325 795 q 376 704 376 755 q 347 633 376 662 q 276 605 316 605 q 215 629 241 605 q 181 677 190 652 l 154 677 q 276 580 180 580 q 368 615 333 580 q 404 704 404 648 m 454 491 l 454 527 l 100 527 l 100 491 l 454 491 m 405 83 l 405 108 l 366 108 l 366 451 l 111 83 l 340 83 l 340 -1 l 366 -1 l 366 83 l 405 83 m 340 108 l 156 108 l 340 368 l 340 108 "},"é":{"x_min":47.21875,"x_max":640.328125,"ha":681,"o":"m 494 836 l 463 869 l 277 683 l 311 651 l 494 836 m 640 298 q 555 504 640 425 q 344 583 472 583 q 130 498 215 583 q 47 286 47 415 q 131 73 47 158 q 344 -11 215 -11 q 441 2 398 -11 q 608 141 554 38 l 556 165 q 450 63 509 88 q 344 44 402 44 q 165 113 230 44 q 102 298 102 181 l 640 298 m 576 352 l 111 352 q 344 527 166 527 q 494 480 429 527 q 576 352 562 431 "},"":{"x_min":31.953125,"x_max":762.5625,"ha":795,"o":"m 262 854 q 227 934 262 900 q 147 969 193 969 q 66 934 101 969 q 31 854 31 900 q 66 773 31 808 q 147 738 101 738 q 227 773 193 738 q 262 854 262 808 m 233 855 q 206 795 233 822 q 147 769 180 769 q 87 795 113 769 q 61 855 61 822 q 87 915 61 888 q 147 941 113 941 q 206 915 180 941 q 233 855 233 888 m 762 854 q 727 934 762 900 q 647 969 693 969 q 566 934 601 969 q 531 854 531 900 q 566 773 531 808 q 647 738 601 738 q 727 773 693 738 q 762 854 762 808 m 733 855 q 707 795 733 822 q 647 769 680 769 q 587 795 613 769 q 561 855 561 822 q 587 915 561 888 q 647 941 613 941 q 707 915 680 941 q 733 855 733 888 m 130 832 q 139 810 130 819 q 161 801 148 801 q 182 810 173 801 q 191 832 191 819 q 182 853 191 844 q 161 862 173 862 q 139 853 148 862 q 130 832 130 844 m 632 827 q 641 806 632 815 q 662 797 650 797 q 684 806 675 797 q 693 827 693 815 q 684 849 693 840 q 662 858 675 858 q 641 849 650 858 q 632 827 632 840 "},"s":{"x_min":40.28125,"x_max":427.8125,"ha":460,"o":"m 427 156 q 368 280 427 234 q 322 306 352 291 q 244 337 291 320 q 165 375 190 355 q 134 438 134 400 q 234 526 134 526 q 355 479 308 526 l 397 515 q 234 581 330 581 q 122 538 165 581 q 77 438 77 497 q 122 334 77 370 q 222 284 152 309 q 285 260 259 270 q 325 241 311 250 q 370 156 370 205 q 240 45 370 45 q 145 72 180 45 q 88 138 112 95 l 40 109 q 240 -11 106 -11 q 373 36 318 -11 q 427 156 427 81 "},"B":{"x_min":105.5625,"x_max":726.453125,"ha":776,"o":"m 726 287 q 663 468 726 394 q 495 562 600 541 q 602 754 602 623 q 530 932 602 868 q 347 991 462 991 l 105 991 l 105 0 l 415 0 q 636 80 545 0 q 726 287 726 159 m 545 754 q 493 623 545 673 q 359 573 440 573 l 161 573 l 161 934 l 351 934 q 490 884 433 934 q 545 754 545 837 m 670 287 q 595 120 670 184 q 416 56 522 56 l 161 56 l 161 516 l 416 516 q 594 455 523 516 q 670 287 670 391 "},"…":{"x_min":-5.5625,"x_max":483.375,"ha":581,"o":"m 86 37 q 40 83 75 83 q -5 37 -5 75 q 8 4 -4 16 q 40 -8 25 -8 q 86 37 86 -8 m 284 37 q 238 83 273 83 q 193 37 193 75 q 206 4 194 16 q 238 -8 223 -8 q 284 37 284 -8 m 483 37 q 437 83 472 83 q 391 37 391 75 q 405 4 393 16 q 437 -8 422 -8 q 483 37 483 -8 "},"?":{"x_min":63.890625,"x_max":600.046875,"ha":651,"o":"m 600 794 q 520 955 600 898 q 341 1005 450 1005 q 63 820 140 1005 l 116 797 q 194 897 156 866 q 341 950 258 950 q 479 913 422 950 q 543 794 543 872 q 494 677 543 734 q 456 643 483 663 q 390 591 430 622 l 272 504 q 175 341 175 431 q 219 243 175 279 q 318 211 263 206 l 358 213 l 390 222 q 438 252 423 237 l 405 298 q 318 269 369 269 q 259 288 283 269 q 236 341 236 308 q 305 463 236 413 l 422 548 q 501 606 472 584 q 537 638 530 629 q 600 794 600 709 m 359 44 q 311 93 351 93 q 262 44 262 84 q 311 -4 270 -4 q 359 44 359 -4 "},"H":{"x_min":105.5625,"x_max":763.953125,"ha":854,"o":"m 763 0 l 763 991 l 707 991 l 707 573 l 161 573 l 161 991 l 105 991 l 105 0 l 161 0 l 161 516 l 707 516 l 707 0 l 763 0 "},"î":{"x_min":11.109375,"x_max":347.25,"ha":354,"o":"m 347 688 l 180 855 l 11 688 l 41 658 l 180 795 l 319 658 l 347 688 m 205 0 l 205 573 l 148 573 l 148 0 l 205 0 "},"c":{"x_min":65.28125,"x_max":537.546875,"ha":608,"o":"m 537 40 l 537 111 q 362 44 462 44 q 188 112 256 44 q 120 286 120 180 q 188 461 120 393 q 362 527 255 527 q 462 509 409 527 l 501 488 l 537 465 l 537 533 q 362 583 472 583 q 150 498 234 583 q 65 286 65 413 q 150 73 65 158 q 362 -11 234 -11 q 537 40 459 -11 "},"¶":{"x_min":68.0625,"x_max":619.5,"ha":701,"o":"m 619 -84 l 619 991 l 562 991 l 562 -84 l 619 -84 m 487 -84 l 487 991 l 337 991 q 147 925 222 991 q 68 743 68 854 q 144 562 68 629 q 337 495 220 495 l 430 495 l 430 -84 l 487 -84 "},"•":{"x_min":66.671875,"x_max":297.25,"ha":408,"o":"m 297 455 q 263 537 297 501 q 181 570 230 570 q 100 537 134 570 q 66 455 66 501 q 100 373 66 406 q 181 340 134 340 q 263 373 230 340 q 297 455 297 406 "},"¥":{"x_min":45.84375,"x_max":668.109375,"ha":714,"o":"m 668 991 l 602 991 l 355 561 l 111 991 l 45 991 l 323 502 l 187 502 l 187 445 l 327 445 l 327 383 l 187 383 l 187 326 l 327 326 l 327 0 l 384 0 l 384 326 l 526 326 l 526 383 l 384 383 l 384 445 l 526 445 l 526 502 l 388 502 l 668 991 "},"(":{"x_min":52.78125,"x_max":205.578125,"ha":256,"o":"m 205 -86 q 101 480 101 188 q 106 590 101 529 q 123 723 112 651 q 157 895 137 815 q 205 1047 177 975 l 156 1047 q 52 480 52 769 q 58 363 52 426 q 75 230 63 301 q 86 170 81 194 q 94 133 91 147 q 103 88 100 106 q 109 59 106 70 q 131 -13 119 22 q 156 -86 143 -50 l 205 -86 "},"U":{"x_min":105.5625,"x_max":680.609375,"ha":771,"o":"m 680 247 l 680 991 l 623 991 l 623 247 q 552 98 623 154 q 391 47 487 47 q 230 97 294 47 q 161 247 161 151 l 161 991 l 105 991 l 105 247 q 190 55 105 126 q 391 -9 270 -9 q 593 54 516 -9 q 680 247 680 126 "},"Ñ":{"x_min":106.953125,"x_max":904.234375,"ha":993,"o":"m 723 1111 l 683 1141 q 643 1108 654 1112 l 626 1102 l 594 1102 l 545 1108 l 505 1125 q 493 1132 498 1129 q 481 1137 487 1134 q 409 1151 444 1151 q 277 1080 316 1151 l 316 1050 q 402 1095 351 1095 q 452 1087 433 1095 l 493 1070 q 600 1045 534 1045 q 675 1065 643 1045 l 697 1083 l 723 1111 m 904 -16 l 904 991 l 847 991 l 847 130 l 106 998 l 106 0 l 162 0 l 162 841 l 904 -16 "},"F":{"x_min":105.5625,"x_max":536.15625,"ha":601,"o":"m 536 516 l 536 573 l 161 573 l 161 934 l 536 934 l 536 991 l 105 991 l 105 0 l 161 0 l 161 516 l 536 516 "},":":{"x_min":70.84375,"x_max":162.515625,"ha":226,"o":"m 162 447 q 116 493 151 493 q 70 447 70 484 q 84 413 72 426 q 116 401 101 401 q 162 447 162 401 m 162 37 q 116 83 151 83 q 70 37 70 75 q 84 4 72 16 q 116 -8 101 -8 q 162 37 162 -8 "},"Û":{"x_min":105.5625,"x_max":680.609375,"ha":771,"o":"m 561 1086 l 394 1254 l 225 1086 l 255 1057 l 394 1194 l 533 1057 l 561 1086 m 680 247 l 680 991 l 623 991 l 623 247 q 552 98 623 154 q 391 47 487 47 q 230 97 294 47 q 161 247 161 151 l 161 991 l 105 991 l 105 247 q 190 55 105 126 q 391 -9 270 -9 q 593 54 516 -9 q 680 247 680 126 "},"*":{"x_min":18.0625,"x_max":379.203125,"ha":401,"o":"m 379 773 q 309 836 370 813 q 271 848 295 843 q 212 861 247 854 l 315 893 q 379 948 379 925 q 347 980 376 980 q 205 875 277 965 q 218 912 218 895 l 227 955 l 234 1012 q 198 1065 234 1065 q 161 1012 161 1058 l 169 944 l 190 875 l 125 941 q 48 980 86 980 q 18 945 18 972 q 83 887 18 912 l 129 870 l 183 861 q 18 775 18 819 q 47 741 18 741 q 125 783 91 750 l 190 845 l 163 754 q 159 709 159 743 q 198 658 159 657 q 231 712 231 659 l 225 773 l 205 845 l 273 780 q 347 744 311 744 q 379 773 379 744 "},"†":{"x_min":59.734375,"x_max":284.75,"ha":340,"o":"m 284 759 l 284 797 l 191 797 l 191 1022 l 152 1022 l 152 797 l 59 797 l 59 759 l 152 759 l 152 213 l 191 213 l 191 759 l 284 759 "},"°":{"x_min":31.953125,"x_max":262.515625,"ha":294,"o":"m 262 854 q 227 934 262 900 q 147 969 193 969 q 66 934 101 969 q 31 854 31 900 q 66 773 31 808 q 147 738 101 738 q 227 773 193 738 q 262 854 262 808 m 233 855 q 206 795 233 822 q 147 769 180 769 q 87 795 113 769 q 61 855 61 822 q 87 915 61 888 q 147 941 113 941 q 206 915 180 941 q 233 855 233 888 "},"V":{"x_min":51.390625,"x_max":690.328125,"ha":731,"o":"m 690 991 l 630 991 l 369 172 l 109 991 l 51 991 l 369 -16 l 690 991 "},"å":{"x_min":48.609375,"x_max":630.609375,"ha":708,"o":"m 454 747 q 419 827 454 793 q 338 862 384 862 q 258 827 293 862 q 223 747 223 793 q 258 666 223 701 q 338 632 293 632 q 419 666 384 632 q 454 747 454 701 m 630 0 l 630 573 l 573 573 l 573 473 q 344 581 481 581 q 133 495 219 581 q 48 286 48 411 q 134 75 48 161 q 344 -9 219 -9 q 573 98 483 -9 l 573 0 l 630 0 m 425 748 q 398 688 425 715 q 338 662 372 662 q 279 688 305 662 q 252 748 252 715 q 279 808 252 782 q 338 834 305 834 q 398 808 372 834 q 425 748 425 782 m 584 286 q 513 115 584 186 q 344 45 444 45 q 175 116 245 45 q 104 286 104 187 q 175 456 104 386 q 344 526 244 526 q 513 455 443 526 q 584 286 584 384 "},"":{"x_min":154.171875,"x_max":404.203125,"ha":544,"o":"m 404 704 q 316 823 404 798 q 400 926 400 845 q 365 1009 400 976 q 280 1040 330 1040 q 198 1011 231 1040 q 161 934 165 984 l 190 934 q 280 1013 202 1013 q 344 988 319 1013 q 369 926 369 965 l 363 891 l 347 865 q 283 841 323 841 l 256 841 l 256 805 l 283 805 l 312 800 q 340 783 325 795 q 376 704 376 755 q 347 633 376 662 q 276 605 316 605 q 215 629 241 605 q 181 677 190 652 l 154 677 q 276 580 180 580 q 368 615 333 580 q 404 704 404 648 "},"0":{"x_min":25,"x_max":752.84375,"ha":772,"o":"m 752 504 q 670 847 752 700 q 388 1023 570 1023 q 106 847 206 1023 q 25 504 25 702 q 106 162 25 306 q 388 -13 206 -13 q 672 161 572 -13 q 752 504 752 304 m 693 504 q 616 187 693 313 q 388 44 531 44 q 151 205 234 44 q 86 504 86 333 q 162 822 86 691 q 388 966 248 966 q 627 805 545 966 q 693 504 693 677 "},"”":{"x_min":91.671875,"x_max":325.03125,"ha":418,"o":"m 325 859 l 325 1022 l 251 1022 l 251 922 l 297 922 l 297 859 q 272 794 297 820 l 300 794 q 325 859 325 825 m 165 859 l 165 1022 l 91 1022 l 91 922 l 137 922 l 137 859 q 112 794 137 820 l 140 794 q 165 859 165 825 "},"¾":{"x_min":100.015625,"x_max":454.203125,"ha":544,"o":"m 404 704 q 316 823 404 798 q 400 926 400 845 q 365 1009 400 979 q 280 1040 330 1040 q 198 1011 231 1040 q 161 934 165 984 l 190 934 q 280 1013 202 1013 q 344 988 319 1013 q 369 926 369 965 l 363 891 l 347 865 q 283 841 323 841 l 256 841 l 256 805 l 283 805 l 312 800 q 340 783 325 795 q 376 704 376 755 q 347 633 376 662 q 276 605 316 605 q 215 629 241 605 q 181 677 190 652 l 154 677 q 276 580 180 580 q 368 615 333 580 q 404 704 404 648 m 454 491 l 454 527 l 100 527 l 100 491 l 454 491 m 405 83 l 405 108 l 366 108 l 366 451 l 111 83 l 340 83 l 340 -1 l 366 -1 l 366 83 l 405 83 m 340 108 l 156 108 l 340 368 l 340 108 "},"@":{"x_min":47.21875,"x_max":783.390625,"ha":828,"o":"m 750 145 q 783 290 783 204 q 672 536 783 437 q 415 630 565 630 q 154 527 261 630 q 47 273 47 425 q 138 25 47 125 q 413 -86 237 -86 q 566 -59 500 -86 q 666 1 634 -34 l 640 27 q 534 -33 607 -11 q 416 -50 472 -50 q 176 38 269 -50 q 83 273 83 126 q 180 501 83 409 q 415 594 275 594 q 647 509 552 594 q 747 290 747 422 q 719 172 747 218 q 633 111 684 111 q 588 131 605 111 q 572 206 568 161 l 590 433 l 555 433 l 550 358 q 406 441 512 441 q 269 387 325 441 q 215 251 215 333 q 256 122 215 169 q 379 73 300 73 q 536 152 491 73 q 559 102 540 126 q 627 73 584 73 q 750 145 708 73 m 498 368 q 531 272 531 330 q 490 155 531 201 q 379 111 451 111 q 252 251 252 111 q 297 359 252 315 q 406 405 343 405 q 498 368 465 405 "},"ö":{"x_min":48.609375,"x_max":640.328125,"ha":692,"o":"m 479 722 q 433 768 468 768 q 387 722 387 759 q 401 688 388 701 q 433 676 418 676 q 479 722 479 676 m 288 722 q 243 768 277 768 q 197 722 197 759 q 211 688 198 701 q 243 676 227 676 q 288 722 288 676 m 640 286 q 554 497 640 411 q 344 583 468 583 q 134 495 219 583 q 48 286 48 409 q 134 75 48 161 q 344 -9 219 -9 q 555 76 469 -9 q 640 286 640 161 m 584 286 q 513 115 584 186 q 344 45 444 45 q 175 116 245 45 q 104 286 104 187 q 176 455 104 383 q 344 527 247 527 q 515 456 445 527 q 584 286 584 387 "},"i":{"x_min":84.734375,"x_max":176.40625,"ha":256,"o":"m 176 722 q 130 768 165 768 q 84 722 84 759 q 98 688 86 701 q 130 676 115 676 q 176 722 176 676 m 158 0 l 158 573 l 101 573 l 101 0 l 158 0 "},"Õ":{"x_min":69.453125,"x_max":1090.359375,"ha":1142,"o":"m 786 1127 l 745 1158 q 705 1125 716 1129 l 688 1119 l 657 1119 l 608 1125 l 568 1141 q 555 1148 561 1145 q 544 1154 550 1151 q 472 1168 506 1168 q 340 1097 379 1168 l 379 1066 q 465 1112 413 1112 q 515 1104 495 1112 l 555 1087 q 662 1062 597 1062 q 737 1082 705 1062 l 759 1100 l 786 1127 m 1090 495 q 947 863 1090 720 q 579 1005 802 1005 q 211 862 354 1005 q 69 495 69 720 q 212 127 69 270 q 579 -13 354 -13 q 947 129 804 -13 q 1090 495 1090 270 m 1033 495 q 907 168 1033 294 q 579 43 779 43 q 252 170 380 43 q 126 495 126 297 q 254 822 126 694 q 579 950 381 950 q 907 822 779 950 q 1033 495 1033 695 "},"þ":{"x_min":88.890625,"x_max":677.828125,"ha":713,"o":"m 677 286 q 591 497 677 411 q 381 581 506 581 q 145 465 234 581 l 145 1027 l 88 1027 l 88 -269 l 145 -269 l 145 106 q 381 -9 238 -9 q 593 76 506 -9 q 677 286 677 161 m 622 286 q 551 115 622 186 q 381 45 481 45 q 212 116 283 45 q 141 286 141 187 q 212 456 141 386 q 381 526 281 526 q 551 455 480 526 q 622 286 622 384 "},"]":{"x_min":84.734375,"x_max":238.90625,"ha":297,"o":"m 238 -63 l 238 1048 l 88 1048 l 88 1000 l 183 1000 l 183 -16 l 84 -16 l 84 -63 l 238 -63 "},"m":{"x_min":91.671875,"x_max":801.453125,"ha":893,"o":"m 801 0 l 801 395 q 748 533 801 483 q 609 581 695 581 q 447 491 497 581 q 283 581 394 581 q 148 516 190 581 l 148 573 l 91 573 l 91 0 l 148 0 l 148 395 q 187 490 148 455 q 283 526 226 526 q 379 488 338 526 q 418 395 418 454 l 418 0 l 475 0 l 475 395 q 609 526 475 526 q 709 487 675 526 q 744 395 744 448 l 744 0 l 801 0 "},"8":{"x_min":91.671875,"x_max":669.5,"ha":757,"o":"m 669 263 q 601 445 669 373 q 479 525 554 497 q 593 611 552 548 q 634 752 634 675 q 563 937 634 866 q 379 1008 493 1008 q 195 936 266 1008 q 125 752 125 865 q 165 613 125 679 q 276 525 206 545 q 140 423 188 491 q 91 263 91 354 q 173 59 91 138 q 381 -18 255 -18 q 588 61 506 -18 q 669 263 669 140 m 579 752 q 522 609 579 666 q 459 565 494 581 q 379 548 423 548 q 300 566 336 548 q 237 612 265 584 q 180 752 180 669 q 237 895 180 838 q 379 952 294 952 q 522 895 465 952 q 579 752 579 838 m 613 263 q 545 101 613 165 q 379 37 480 37 q 212 104 279 37 q 147 263 147 169 q 216 426 147 356 q 291 479 251 459 q 379 500 331 500 q 468 479 427 500 q 544 425 509 459 q 613 263 613 358 "},"\u001b":{"x_min":43.0625,"x_max":600.046875,"ha":638,"o":"m 600 966 l 600 1020 l 563 1026 q 550 1028 558 1027 q 529 1029 541 1029 q 451 1009 487 1029 q 404 948 408 987 q 279 1000 366 1000 q 163 958 206 1000 q 120 845 120 916 l 120 573 l 43 573 l 43 516 l 120 516 l 120 0 l 177 0 l 177 516 l 390 516 l 390 0 l 445 0 l 445 516 l 581 516 l 581 573 l 445 573 l 445 886 q 472 958 445 937 q 527 975 493 975 l 573 970 l 600 966 m 390 573 l 177 573 l 177 838 q 279 944 177 944 q 347 926 316 944 q 390 880 377 909 l 390 573 "},"R":{"x_min":105.5625,"x_max":650.046875,"ha":672,"o":"m 650 0 l 331 495 q 441 510 391 495 q 528 555 491 525 q 585 633 565 586 q 605 745 605 680 q 584 851 605 805 q 526 928 562 897 q 440 975 490 959 q 334 991 390 991 l 105 991 l 105 0 l 161 0 l 161 495 l 268 495 l 583 0 l 650 0 m 547 747 q 492 602 547 652 q 348 552 437 552 l 161 552 l 161 934 l 333 934 q 416 922 377 934 q 484 888 455 911 q 530 829 513 865 q 547 747 547 794 "},"á":{"x_min":48.609375,"x_max":630.609375,"ha":708,"o":"m 516 836 l 486 869 l 300 683 l 334 651 l 516 836 m 630 0 l 630 573 l 573 573 l 573 473 q 344 581 481 581 q 133 495 219 581 q 48 286 48 411 q 134 75 48 161 q 344 -9 219 -9 q 573 98 483 -9 l 573 0 l 630 0 m 584 286 q 513 115 584 186 q 344 45 444 45 q 175 116 245 45 q 104 286 104 187 q 175 456 104 386 q 344 526 244 526 q 513 455 443 526 q 584 286 584 384 "},"×":{"x_min":9.71875,"x_max":1301.5,"ha":1308,"o":"m 901 481 q 893 469 897 475 q 886 458 890 463 l 886 481 q 891 486 888 481 q 897 493 894 490 l 901 481 m 998 636 l 983 616 l 997 643 l 998 636 m 1008 518 q 1013 538 1011 531 l 1011 518 l 1008 518 m 1207 483 q 1137 494 1177 483 q 1068 512 1097 505 q 1070 522 1069 518 q 1072 533 1072 527 q 1083 531 1076 531 q 1093 529 1090 531 l 1095 530 q 1134 526 1113 526 l 1138 530 q 1122 537 1138 536 q 1101 540 1105 538 l 1102 545 l 1123 545 q 1192 541 1158 545 q 1258 522 1226 537 q 1226 501 1248 508 l 1223 497 q 1221 484 1225 486 q 1207 483 1218 483 m 1011 509 l 1008 509 l 1011 509 m 1113 491 l 1112 488 q 1122 483 1112 486 q 1143 477 1132 480 q 1167 471 1155 473 q 1183 468 1179 469 q 1121 479 1151 473 q 1062 494 1091 486 l 1065 504 q 1089 497 1077 501 q 1113 491 1101 494 m 1177 477 q 1197 475 1193 475 q 1218 468 1202 475 q 1197 472 1207 470 q 1177 477 1187 475 m 1076 554 q 1087 604 1083 579 q 1097 655 1091 629 q 1092 604 1094 629 q 1088 554 1090 579 l 1076 554 m 1018 498 l 1047 490 q 1031 463 1043 480 q 1012 436 1019 447 q 1016 467 1015 451 q 1018 498 1016 483 m 1019 509 l 1036 509 q 1052 506 1041 509 l 1050 497 q 1034 502 1041 500 q 1019 506 1026 504 l 1019 509 m 1022 544 q 1041 541 1032 543 q 1059 538 1050 540 l 1063 536 q 1057 515 1062 529 q 1037 518 1047 518 q 1019 518 1029 518 l 1022 544 m 1007 620 l 1007 634 l 1019 652 q 1013 636 1016 644 q 1007 620 1009 627 m 950 563 q 952 563 951 563 q 954 562 952 562 q 961 570 955 562 q 975 590 968 579 q 990 611 983 601 q 998 623 997 620 q 1000 602 1000 616 q 992 582 1000 598 q 974 547 984 566 q 954 510 963 527 q 941 487 944 493 q 945 525 944 506 q 950 563 947 544 m 902 500 q 915 515 911 511 q 913 503 915 506 q 905 491 911 500 l 902 500 m 913 488 l 913 469 l 909 480 l 913 488 m 891 508 l 893 502 l 890 498 l 891 508 m 359 725 l 356 725 q 347 726 354 726 l 338 734 l 341 736 q 351 732 345 734 q 359 725 356 729 m 387 719 l 388 719 l 387 719 m 79 340 l 79 436 q 213 422 147 433 q 348 401 280 411 l 348 386 q 79 340 212 370 m 348 529 l 348 501 q 300 504 327 502 q 245 510 272 505 q 193 525 218 515 q 156 554 169 534 q 166 556 159 556 q 259 548 213 556 q 348 529 304 540 m 437 472 q 422 484 430 479 q 405 491 413 488 l 405 513 q 452 501 429 506 q 500 491 476 495 q 470 478 488 481 q 437 472 451 475 m 377 398 l 376 398 l 377 398 m 348 458 l 348 447 q 330 452 338 450 q 312 458 322 455 l 348 458 m 426 470 q 416 470 420 470 q 405 469 411 469 l 405 483 q 426 470 415 479 m 448 415 l 413 415 q 419 419 419 415 q 413 423 419 422 q 405 426 408 425 l 405 461 q 419 462 412 462 q 433 463 426 462 q 444 441 441 452 q 448 415 447 429 m 348 377 l 348 316 q 281 306 315 309 q 213 304 248 304 l 177 304 q 127 307 152 304 q 79 315 102 311 l 79 330 q 213 359 145 347 q 348 377 280 370 m 445 387 q 430 359 441 372 q 405 338 419 347 l 405 352 q 406 360 405 355 q 409 368 408 365 l 405 369 l 405 384 q 425 385 416 384 q 445 387 434 386 m 448 406 l 448 400 q 439 400 445 400 q 425 402 433 401 q 412 403 418 402 q 405 404 406 404 l 405 406 l 448 406 m 405 323 l 405 329 q 436 353 423 338 q 454 387 450 368 q 462 388 455 387 q 476 389 469 388 q 488 391 483 390 q 494 394 494 391 q 488 398 494 397 q 476 400 483 400 q 463 400 470 400 q 456 400 458 400 l 456 408 q 579 416 519 411 q 493 369 536 391 q 405 323 450 347 m 355 600 l 356 598 l 355 600 m 298 605 l 316 604 l 298 605 m 405 605 l 405 607 q 415 605 408 605 l 405 605 m 475 586 q 483 588 477 586 l 488 588 q 486 583 486 586 l 475 586 m 451 577 l 452 577 l 455 577 l 451 577 m 345 619 l 347 613 l 340 613 l 345 619 m 323 668 q 335 650 330 659 q 343 629 340 640 l 327 615 q 318 616 325 615 q 302 616 311 616 q 288 615 294 616 q 281 609 281 613 l 293 607 l 293 598 q 321 595 308 598 q 348 588 334 593 l 348 537 q 259 556 304 548 q 170 565 215 565 q 156 563 165 565 q 148 555 148 562 q 174 524 148 536 q 234 506 200 512 q 301 497 268 500 q 348 493 334 494 l 348 466 q 331 467 344 466 q 304 468 318 468 q 279 466 290 468 q 268 461 268 465 q 281 454 270 458 q 305 447 293 451 q 329 441 318 444 q 348 437 341 438 l 348 418 q 213 431 280 422 q 79 444 147 441 l 79 590 q 117 684 79 648 q 213 720 155 720 q 252 716 233 720 q 287 701 270 712 q 287 695 284 698 q 295 690 290 693 q 304 685 300 687 q 312 682 309 683 q 297 681 308 682 q 276 679 287 680 q 256 675 265 677 q 247 670 247 673 l 251 665 q 287 665 269 665 q 323 668 305 665 m 369 718 l 372 716 q 366 713 369 713 q 361 711 363 712 q 358 714 359 713 q 355 718 356 715 q 362 717 358 716 q 369 718 366 718 m 383 698 l 377 698 l 369 698 l 368 702 q 377 708 370 705 q 387 711 383 711 q 384 706 386 708 q 383 701 383 704 l 383 698 m 427 675 q 431 680 429 677 l 438 673 q 433 674 436 673 q 427 675 430 675 m 381 690 l 380 690 l 381 690 m 336 745 q 327 746 333 745 q 318 750 320 747 l 323 755 l 336 745 m 188 1048 l 213 1048 l 206 1048 l 201 1048 l 188 1048 m 504 570 l 501 570 l 500 573 l 513 570 l 504 570 m 405 197 l 405 252 q 430 241 419 248 q 452 226 441 234 q 405 197 434 205 m 361 34 q 369 31 362 31 q 380 31 377 31 q 370 29 375 30 q 358 29 365 29 l 352 29 q 334 29 343 29 q 318 31 326 30 q 333 34 326 34 l 361 34 m 431 33 l 431 34 q 470 35 451 34 q 509 38 490 36 q 470 34 490 34 q 431 33 451 34 m 426 43 l 415 51 q 476 58 445 55 q 537 61 506 61 l 537 69 l 387 62 l 416 65 l 418 73 l 372 84 q 413 100 391 95 q 455 111 434 104 l 455 119 q 351 152 401 131 l 380 156 l 381 165 l 341 177 q 406 188 373 180 q 461 223 438 197 l 461 229 l 405 261 l 405 313 q 502 364 454 338 q 600 418 551 390 l 598 426 l 456 416 l 443 465 q 479 475 462 468 q 511 491 495 481 l 509 498 q 456 509 481 502 q 405 522 431 515 l 405 558 l 415 565 l 509 554 l 513 556 l 534 552 l 537 561 l 527 563 l 556 566 l 556 575 l 497 581 l 518 583 l 519 591 q 462 602 490 600 q 406 615 434 604 l 416 655 l 425 662 l 508 659 l 452 669 l 437 686 q 484 713 456 707 q 540 720 512 720 q 636 684 597 720 q 675 590 675 648 l 675 0 l 732 0 l 732 470 l 740 479 l 1218 0 l 1297 0 l 788 509 l 812 513 l 816 490 l 836 511 l 832 493 l 838 488 l 857 505 l 854 477 l 862 475 l 879 500 l 877 444 l 884 441 l 904 470 l 911 445 l 919 445 l 927 472 l 927 448 l 936 448 q 944 474 936 456 q 963 512 952 491 q 984 552 973 533 q 1000 581 995 570 l 998 518 l 980 509 l 1009 500 l 1001 416 l 1009 413 l 1029 448 l 1033 437 l 1058 487 q 1153 465 1105 475 q 1250 448 1201 455 l 1226 427 l 1261 415 l 1201 402 l 1200 394 l 1237 377 l 1240 386 l 1215 395 l 1276 411 l 1276 419 l 1237 431 l 1261 447 l 1301 443 l 1301 451 q 1258 456 1280 452 q 1219 476 1236 461 q 1240 501 1226 490 q 1266 520 1254 512 l 1265 527 q 1190 550 1229 545 q 1112 554 1151 554 l 1126 583 l 1119 587 l 1098 554 l 1097 554 q 1102 629 1098 591 q 1107 705 1107 668 l 1098 707 q 1082 629 1088 668 q 1068 554 1076 591 l 1023 554 l 1026 583 l 1018 584 l 1009 554 l 1008 554 l 1008 563 q 1016 620 1007 593 q 1036 676 1026 648 l 1029 680 l 1005 647 l 995 658 l 951 569 l 940 570 l 930 523 l 926 547 q 913 527 920 536 q 900 509 907 518 l 888 544 l 880 543 l 879 515 l 863 493 l 865 516 l 858 519 l 843 504 l 855 534 l 848 538 l 819 504 q 820 522 823 511 q 815 541 818 534 l 813 522 l 782 516 l 780 518 l 1255 991 l 1175 991 l 732 551 l 732 991 l 675 991 l 675 732 q 611 766 647 755 q 540 776 576 776 q 500 771 516 776 q 467 759 483 766 q 436 742 451 751 q 401 725 420 733 l 361 738 l 361 741 l 351 743 l 326 763 l 309 754 l 283 765 l 347 775 l 347 783 l 291 794 q 327 793 309 791 q 363 801 345 795 l 363 809 l 263 840 q 329 840 294 840 q 397 844 363 840 q 461 859 430 848 q 518 894 493 870 l 515 901 q 367 899 441 901 q 222 919 293 897 l 286 945 l 283 954 q 230 947 256 948 q 176 945 204 947 q 217 957 186 954 q 284 961 248 959 q 354 962 320 962 q 405 965 388 962 l 405 973 q 334 985 369 979 q 263 1002 298 991 q 330 1031 297 1018 q 401 1045 363 1044 l 404 1054 l 509 1076 l 508 1084 l 440 1087 q 381 1084 411 1088 q 323 1083 352 1080 l 347 1102 l 305 1115 l 354 1195 l 345 1201 q 332 1179 341 1194 q 313 1148 323 1165 q 297 1117 304 1132 q 293 1095 291 1102 l 320 1101 l 334 1097 l 300 1080 q 321 1075 305 1077 q 344 1073 337 1073 q 412 1077 379 1073 q 480 1077 445 1080 q 429 1064 455 1070 q 377 1058 404 1058 l 347 1063 l 344 1069 q 284 1075 313 1070 q 225 1084 255 1080 l 225 1076 l 276 1068 l 243 1070 l 243 1062 l 334 1052 q 261 1050 298 1050 q 187 1045 223 1050 l 309 1037 l 322 1037 l 251 1007 l 251 998 q 308 981 279 987 q 366 970 337 975 q 263 968 316 969 q 166 941 211 968 l 170 937 q 211 937 190 937 q 251 940 231 937 l 209 923 l 209 915 q 293 895 250 900 q 380 891 337 890 l 504 893 q 452 866 480 875 q 393 852 423 857 q 333 848 363 848 q 273 848 302 848 q 263 849 270 848 q 247 849 255 850 q 233 846 238 848 q 231 840 227 844 q 291 824 262 833 q 350 805 320 815 l 320 801 q 274 805 297 801 q 227 812 251 809 l 226 804 q 322 779 273 788 q 293 773 308 776 q 263 770 279 770 q 209 771 236 770 q 160 768 183 772 q 116 751 137 763 q 79 711 95 738 l 79 768 l 22 768 l 22 325 l 9 322 l 22 313 l 22 194 l 79 194 l 79 306 q 213 294 145 295 q 348 308 281 293 q 345 284 345 298 q 345 252 344 269 q 347 220 345 236 q 348 194 348 204 l 395 194 q 357 187 376 188 q 319 184 338 186 l 318 176 l 361 162 l 336 158 l 336 150 q 386 130 361 138 q 438 115 411 122 q 399 103 419 108 q 361 88 379 98 l 384 70 l 366 68 l 365 59 l 370 58 q 314 54 343 55 q 258 52 286 52 l 256 44 l 302 37 l 293 26 q 402 6 348 23 l 405 15 l 384 19 q 455 22 418 23 q 523 40 493 22 q 511 43 518 41 q 498 45 504 45 l 426 43 m 369 43 q 386 45 377 44 q 402 48 394 47 q 407 46 405 47 q 412 43 409 45 l 383 43 l 369 43 m 359 50 q 345 45 354 48 q 333 43 337 43 q 317 43 325 43 q 302 45 309 44 q 359 50 330 45 m 500 572 l 501 570 l 504 570 l 500 572 "},"o":{"x_min":48.609375,"x_max":640.328125,"ha":692,"o":"m 640 286 q 554 497 640 411 q 344 583 468 583 q 134 495 219 583 q 48 286 48 409 q 134 75 48 161 q 344 -9 219 -9 q 555 76 469 -9 q 640 286 640 161 m 584 286 q 513 115 584 186 q 344 45 444 45 q 175 116 245 45 q 104 286 104 187 q 176 455 104 383 q 344 527 247 527 q 515 456 445 527 q 584 286 584 387 "},"5":{"x_min":37.5,"x_max":713.953125,"ha":757,"o":"m 713 354 q 602 607 713 512 q 361 690 494 698 l 302 686 l 247 679 l 306 934 l 643 934 l 643 991 l 262 991 l 163 607 q 262 626 215 626 q 295 632 283 632 l 316 632 l 361 633 q 563 562 476 637 q 657 354 657 483 q 573 133 657 222 q 361 43 490 43 q 184 93 252 43 q 90 215 130 133 l 37 194 q 361 -13 125 -13 q 616 90 518 -13 q 713 354 713 193 "},"õ":{"x_min":48.609375,"x_max":640.328125,"ha":692,"o":"m 559 743 l 519 773 q 479 740 490 744 l 462 734 l 430 734 l 381 740 l 341 757 q 329 763 334 761 q 318 769 323 766 q 245 783 280 783 q 113 712 152 783 l 152 682 q 238 727 187 727 q 288 719 269 727 l 329 702 q 436 677 370 677 q 511 697 479 677 l 533 715 l 559 743 m 640 286 q 554 497 640 411 q 344 583 468 583 q 134 495 219 583 q 48 286 48 409 q 134 75 48 161 q 344 -9 219 -9 q 555 76 469 -9 q 640 286 640 161 m 584 286 q 513 115 584 186 q 344 45 444 45 q 175 116 245 45 q 104 286 104 187 q 176 455 104 383 q 344 527 247 527 q 515 456 445 527 q 584 286 584 387 "},"7":{"x_min":33.34375,"x_max":740.34375,"ha":757,"o":"m 740 991 l 43 991 l 43 934 l 634 934 l 33 22 l 80 -13 l 740 991 "},"K":{"x_min":91.671875,"x_max":713.953125,"ha":728,"o":"m 713 0 l 197 518 l 672 991 l 591 991 l 148 551 l 148 991 l 91 991 l 91 0 l 148 0 l 148 470 l 156 479 l 634 0 l 713 0 "},",":{"x_min":63.890625,"x_max":215.296875,"ha":249,"o":"m 215 75 l 166 95 l 63 -130 l 81 -143 l 215 75 "},"d":{"x_min":59.734375,"x_max":645.890625,"ha":724,"o":"m 645 0 l 645 1027 l 588 1027 l 588 469 q 355 581 493 581 q 144 495 230 581 q 59 286 59 411 q 145 75 59 161 q 355 -9 230 -9 q 588 102 497 -9 l 588 0 l 645 0 m 595 286 q 525 115 595 186 q 355 45 455 45 q 186 116 256 45 q 115 286 115 187 q 186 456 115 386 q 355 526 255 526 q 525 455 454 526 q 595 286 595 384 "},"¨":{"x_min":163.90625,"x_max":445.875,"ha":596,"o":"m 445 722 q 400 768 434 768 q 354 722 354 759 q 368 688 355 701 q 400 676 384 676 q 445 722 445 676 m 255 722 q 209 768 244 768 q 163 722 163 759 q 177 688 165 701 q 209 676 194 676 q 255 722 255 676 "},"Ô":{"x_min":69.453125,"x_max":1090.359375,"ha":1142,"o":"m 743 1086 l 575 1254 l 406 1086 l 436 1057 l 575 1194 l 713 1057 l 743 1086 m 1090 495 q 947 863 1090 720 q 579 1005 802 1005 q 211 862 354 1005 q 69 495 69 720 q 212 127 69 270 q 579 -13 354 -13 q 947 129 804 -13 q 1090 495 1090 270 m 1033 495 q 907 168 1033 294 q 579 43 779 43 q 252 170 380 43 q 126 495 126 297 q 254 822 126 694 q 579 950 381 950 q 907 822 779 950 q 1033 495 1033 695 "},"E":{"x_min":98.625,"x_max":575.046875,"ha":657,"o":"m 575 0 l 575 56 l 155 56 l 155 512 l 575 512 l 575 573 l 155 573 l 155 934 l 575 934 l 575 991 l 98 991 l 98 0 l 575 0 "},"Y":{"x_min":45.84375,"x_max":668.109375,"ha":710,"o":"m 668 991 l 602 991 l 355 562 l 111 991 l 45 991 l 327 495 l 327 0 l 384 0 l 384 495 l 668 991 "},"\"":{"x_min":84.734375,"x_max":297.25,"ha":375,"o":"m 297 1009 l 240 1009 l 255 787 l 283 787 l 297 1009 m 141 1009 l 84 1009 l 98 787 l 127 787 l 141 1009 "},"‹":{"x_min":36.109375,"x_max":326.421875,"ha":390,"o":"m 326 587 l 297 616 l 36 354 l 291 97 l 320 126 l 91 354 l 326 587 "},"ê":{"x_min":47.21875,"x_max":640.328125,"ha":681,"o":"m 516 688 l 350 855 l 181 688 l 211 658 l 350 795 l 488 658 l 516 688 m 640 298 q 555 504 640 425 q 344 583 472 583 q 130 498 215 583 q 47 286 47 415 q 131 73 47 158 q 344 -11 215 -11 q 441 2 398 -11 q 608 141 554 38 l 556 165 q 450 63 509 88 q 344 44 402 44 q 165 113 230 44 q 102 298 102 181 l 640 298 m 576 352 l 111 352 q 344 527 166 527 q 494 480 429 527 q 576 352 562 431 "},"Ï":{"x_min":-8.328125,"x_max":273.640625,"ha":267,"o":"m 273 1105 q 227 1151 262 1151 q 181 1105 181 1143 q 195 1072 183 1084 q 227 1059 212 1059 q 273 1105 273 1059 m 83 1105 q 37 1151 72 1151 q -8 1105 -8 1143 q 5 1072 -6 1084 q 37 1059 22 1059 q 83 1105 83 1059 m 162 0 l 162 991 l 106 991 l 106 0 l 162 0 "},"„":{"x_min":91.671875,"x_max":325.03125,"ha":418,"o":"m 325 20 l 325 183 l 251 183 l 251 83 l 297 83 l 297 20 q 272 -44 297 -18 l 300 -44 q 318 -15 313 -34 q 325 20 325 1 m 165 20 l 165 183 l 91 183 l 91 83 l 137 83 l 137 20 q 112 -44 137 -18 l 140 -44 q 158 -15 154 -34 q 165 20 165 1 "},"Â":{"x_min":43.0625,"x_max":836.171875,"ha":879,"o":"m 609 1051 l 441 1219 l 273 1051 l 302 1022 l 441 1159 l 580 1022 l 609 1051 m 836 0 l 438 1023 l 43 0 l 98 0 l 213 297 l 665 297 l 779 0 l 836 0 m 641 354 l 236 354 l 438 879 l 641 354 "},"\u0006":{"x_min":123.625,"x_max":215.296875,"ha":432,"o":"m 215 734 q 169 780 204 780 q 123 734 123 772 q 137 701 125 713 q 169 688 154 688 q 215 734 215 688 "},"Í":{"x_min":97.234375,"x_max":279.1875,"ha":267,"o":"m 279 1201 l 252 1229 l 97 1073 l 125 1047 l 279 1201 m 162 0 l 162 991 l 106 991 l 106 0 l 162 0 "},"´":{"x_min":216.6875,"x_max":434.75,"ha":567,"o":"m 434 836 l 401 869 l 216 684 l 250 651 l 434 836 "},"ì":{"x_min":-52.78125,"x_max":163.90625,"ha":256,"o":"m 163 683 l -20 869 l -52 836 l 130 651 l 163 683 m 158 0 l 158 573 l 101 573 l 101 0 l 158 0 "},"±":{"x_min":93.0625,"x_max":450.03125,"ha":539,"o":"m 440 448 l 440 505 l 298 505 l 298 647 l 234 647 l 234 505 l 93 505 l 93 448 l 234 448 l 234 306 l 298 306 l 298 448 l 440 448 m 450 197 l 450 254 l 93 254 l 93 197 l 450 197 "},"Ú":{"x_min":105.5625,"x_max":680.609375,"ha":771,"o":"m 552 1201 l 526 1229 l 370 1073 l 398 1047 l 552 1201 m 680 247 l 680 991 l 623 991 l 623 247 q 552 98 623 154 q 391 47 487 47 q 230 97 294 47 q 161 247 161 151 l 161 991 l 105 991 l 105 247 q 190 55 105 126 q 391 -9 270 -9 q 593 54 516 -9 q 680 247 680 126 "},"|":{"x_min":75,"x_max":123.625,"ha":185,"o":"m 123 -63 l 123 1048 l 75 1048 l 75 -63 l 123 -63 "},"§":{"x_min":51.390625,"x_max":480.59375,"ha":528,"o":"m 480 483 q 266 705 480 670 q 138 840 138 726 q 173 925 138 890 q 258 958 208 958 q 394 866 344 958 l 436 894 q 258 1011 377 1011 q 130 962 183 1011 q 80 837 80 913 q 179 677 80 734 q 95 616 119 645 q 51 479 51 563 q 108 338 51 398 q 245 270 163 281 q 393 111 393 252 q 354 19 393 52 q 258 -13 316 -13 q 166 16 197 -13 q 116 93 134 48 l 65 69 q 138 -31 90 4 q 258 -68 187 -68 q 400 -19 343 -68 q 455 111 455 27 q 361 291 455 238 q 480 483 480 361 m 418 479 q 375 376 418 413 q 266 340 331 340 q 159 380 204 340 q 115 486 115 420 q 154 590 115 550 q 255 632 193 632 q 418 479 418 632 "},"Ý":{"x_min":45.84375,"x_max":668.109375,"ha":710,"o":"m 526 1201 l 497 1232 l 341 1070 l 370 1047 l 526 1201 m 668 991 l 602 991 l 355 562 l 111 991 l 45 991 l 327 495 l 327 0 l 384 0 l 384 495 l 668 991 "},"b":{"x_min":76.390625,"x_max":663.9375,"ha":718,"o":"m 663 286 q 577 497 663 411 q 368 581 493 581 q 133 466 223 581 l 133 1027 l 76 1027 l 76 0 l 133 0 l 133 105 q 368 -9 225 -9 q 579 76 493 -9 q 663 286 663 161 m 608 286 q 537 115 608 186 q 368 45 468 45 q 198 116 269 45 q 127 286 127 187 q 198 456 127 386 q 368 526 268 526 q 537 455 466 526 q 608 286 608 384 "},"q":{"x_min":41.671875,"x_max":627.828125,"ha":697,"o":"m 627 -269 l 627 573 l 570 573 l 570 469 q 337 581 476 581 q 126 495 212 581 q 41 286 41 411 q 127 75 41 161 q 337 -9 212 -9 q 570 102 479 -9 l 570 -269 l 627 -269 m 577 286 q 506 115 577 186 q 337 45 437 45 q 168 116 238 45 q 97 286 97 187 q 168 456 97 386 q 337 526 237 526 q 506 455 436 526 q 577 286 577 384 "},"":{"x_min":141.671875,"x_max":412.53125,"ha":544,"o":"m 412 911 q 373 997 412 963 q 281 1030 333 1030 q 195 1000 234 1030 q 151 925 158 972 l 179 925 q 281 1005 205 1005 q 354 977 322 1005 q 386 911 386 952 q 359 833 386 873 l 141 580 l 411 580 l 411 605 l 197 605 l 326 751 q 386 823 375 807 q 412 911 412 868 "},"Ö":{"x_min":69.453125,"x_max":1090.359375,"ha":1142,"o":"m 715 1105 q 669 1151 704 1151 q 623 1105 623 1143 q 637 1072 625 1084 q 669 1059 654 1059 q 715 1105 715 1059 m 525 1105 q 479 1151 513 1151 q 433 1105 433 1143 q 447 1072 434 1084 q 479 1059 463 1059 q 525 1105 525 1059 m 1090 495 q 947 863 1090 720 q 579 1005 802 1005 q 211 862 354 1005 q 69 495 69 720 q 212 127 69 270 q 579 -13 354 -13 q 947 129 804 -13 q 1090 495 1090 270 m 1033 495 q 907 168 1033 294 q 579 43 779 43 q 252 170 380 43 q 126 495 126 297 q 254 822 126 694 q 579 950 381 950 q 907 822 779 950 q 1033 495 1033 695 "},"z":{"x_min":63.890625,"x_max":588.9375,"ha":635,"o":"m 588 573 l 87 573 l 87 519 l 473 519 l 63 0 l 581 0 l 581 56 l 181 56 l 588 573 "},"™":{"x_min":54.171875,"x_max":437.53125,"ha":468,"o":"m 437 759 l 391 983 l 319 777 l 248 983 l 198 759 l 208 759 l 250 951 l 319 748 l 388 951 l 427 759 l 437 759 m 205 972 l 205 980 l 54 980 l 54 972 l 125 972 l 125 758 l 134 758 l 134 972 l 205 972 "},"\u000b":{"x_min":97.234375,"x_max":269.46875,"ha":368,"o":"m 269 -175 l 269 -119 l 237 -140 q 202 -148 216 -148 q 169 -134 179 -148 q 161 -98 161 -116 q 169 -52 161 -76 l 195 0 l 131 0 q 104 -58 105 -50 l 97 -88 l 97 -119 q 120 -183 97 -156 q 180 -208 143 -208 l 206 -205 l 231 -197 q 269 -175 256 -188 "},"ã":{"x_min":48.609375,"x_max":630.609375,"ha":708,"o":"m 570 743 l 531 773 q 436 734 497 734 l 393 740 l 352 758 q 313 777 331 772 q 289 782 302 780 q 258 783 276 783 q 126 712 165 783 l 163 682 q 258 727 206 727 l 300 722 q 319 714 309 719 q 340 702 329 709 q 438 677 377 677 q 522 697 486 677 l 544 715 l 570 743 m 630 0 l 630 573 l 573 573 l 573 473 q 344 581 481 581 q 133 495 219 581 q 48 286 48 411 q 134 75 48 161 q 344 -9 219 -9 q 573 98 483 -9 l 573 0 l 630 0 m 584 286 q 513 115 584 186 q 344 45 444 45 q 175 116 245 45 q 104 286 104 187 q 175 456 104 386 q 344 526 244 526 q 513 455 443 526 q 584 286 584 384 "},"\u0019":{"x_min":69.453125,"x_max":1116.75,"ha":1142,"o":"m 1116 -140 l 893 83 q 1090 495 1090 225 q 947 863 1090 720 q 579 1005 802 1005 q 211 862 354 1005 q 69 495 69 720 q 212 127 69 270 q 579 -13 354 -13 q 847 54 729 -13 l 1040 -140 l 1116 -140 m 1012 344 q 851 125 970 208 l 668 308 l 594 308 l 804 97 q 579 43 704 43 q 252 170 380 43 q 126 495 126 297 q 254 822 126 694 q 579 950 379 950 q 907 822 779 950 q 1033 511 1029 700 l 1026 518 q 945 552 991 552 q 865 518 900 552 q 830 437 830 483 q 865 356 830 391 q 945 322 900 322 q 1012 344 984 322 m 1032 447 q 1029 429 1030 438 q 1027 412 1029 420 q 1005 379 1022 395 q 945 352 979 352 q 886 379 912 352 q 859 438 859 405 q 886 498 859 472 q 945 525 912 525 q 1005 498 979 525 q 1032 447 1027 476 m 561 437 q 526 518 561 483 q 445 552 491 552 q 365 518 400 552 q 330 437 330 483 q 365 356 330 391 q 445 322 400 322 q 526 356 491 322 q 561 437 561 391 m 531 438 q 505 379 531 405 q 445 352 479 352 q 386 379 412 352 q 359 438 359 405 q 386 498 359 472 q 445 525 412 525 q 505 498 479 525 q 531 438 531 472 m 429 415 q 438 393 429 402 q 459 384 447 384 q 481 393 472 384 q 490 415 490 402 q 481 436 490 427 q 459 445 472 445 q 438 436 447 445 q 429 415 429 427 m 930 411 q 939 389 930 398 q 961 380 948 380 q 982 389 973 380 q 991 411 991 398 q 982 432 991 423 q 961 441 973 441 q 939 432 948 441 q 930 411 930 423 "},"æ":{"x_min":48.609375,"x_max":1170.921875,"ha":1220,"o":"m 1170 298 q 1086 502 1170 426 q 875 580 1001 580 q 630 461 713 580 l 630 573 l 573 573 l 573 473 q 344 581 481 581 q 133 495 219 581 q 48 286 48 411 q 134 75 48 161 q 344 -9 219 -9 q 573 98 483 -9 l 573 0 l 630 0 l 630 108 q 875 -11 716 -11 q 972 2 929 -11 q 1138 141 1084 38 l 1087 165 q 980 63 1040 88 q 875 44 933 44 q 695 113 761 44 q 633 298 633 181 l 1170 298 m 1107 352 l 641 352 q 875 525 697 525 q 1043 463 977 525 q 1107 352 1093 416 m 584 286 q 513 115 584 186 q 344 45 444 45 q 175 116 245 45 q 104 286 104 187 q 175 456 104 386 q 344 526 244 526 q 513 455 443 526 q 584 286 584 384 "},"®":{"x_min":56.953125,"x_max":495.875,"ha":554,"o":"m 495 748 q 431 904 495 840 q 276 968 368 968 q 120 904 184 968 q 56 748 56 840 q 120 593 56 657 q 276 529 184 529 q 431 593 368 529 q 495 748 495 657 m 475 748 q 415 609 475 669 q 276 550 355 550 q 137 609 197 550 q 77 748 77 669 q 137 887 77 827 q 276 947 197 947 q 415 887 355 947 q 475 748 475 827 m 368 627 l 286 744 l 297 744 q 368 812 368 744 q 347 862 368 843 q 297 880 329 880 l 200 880 l 200 627 l 219 627 l 219 744 l 262 744 l 343 627 l 368 627 m 348 812 q 298 763 348 763 l 219 763 l 219 861 l 298 861 q 348 812 348 861 "},"É":{"x_min":98.625,"x_max":575.046875,"ha":657,"o":"m 491 1201 l 462 1232 l 306 1070 l 336 1047 l 491 1201 m 575 0 l 575 56 l 155 56 l 155 512 l 575 512 l 575 573 l 155 573 l 155 934 l 575 934 l 575 991 l 98 991 l 98 0 l 575 0 "},"~":{"x_min":41.671875,"x_max":558.375,"ha":596,"o":"m 558 498 l 513 536 q 406 486 465 486 l 381 488 l 358 495 l 311 518 l 255 543 q 204 551 230 551 q 41 480 112 551 l 80 440 l 106 463 l 130 479 q 204 495 165 495 q 262 480 233 495 l 297 462 l 354 436 q 409 429 370 429 q 558 498 493 429 "},"³":{"x_min":154.171875,"x_max":404.203125,"ha":544,"o":"m 404 704 q 316 823 404 798 q 400 926 400 845 q 365 1009 400 979 q 280 1040 330 1040 q 198 1011 231 1040 q 161 934 165 984 l 190 934 q 280 1013 202 1013 q 344 988 319 1013 q 369 926 369 965 l 363 891 l 347 865 q 283 841 323 841 l 256 841 l 256 805 l 283 805 l 312 800 q 340 783 325 795 q 376 704 376 755 q 347 633 376 662 q 276 605 316 605 q 215 629 241 605 q 181 677 190 652 l 154 677 q 276 580 180 580 q 368 615 333 580 q 404 704 404 648 "},"":{"x_min":105.5625,"x_max":462.53125,"ha":544,"o":"m 304 581 l 304 1029 l 220 1029 l 204 1002 l 279 1002 l 279 581 l 304 581 m 462 491 l 462 527 l 109 527 l 109 491 l 462 491 m 400 83 l 400 108 l 361 108 l 361 451 l 105 83 l 334 83 l 334 -1 l 361 -1 l 361 83 l 400 83 m 334 108 l 151 108 l 334 368 l 334 108 "},"¡":{"x_min":93.0625,"x_max":193.078125,"ha":283,"o":"m 193 844 q 177 879 188 868 q 143 894 162 894 q 93 844 93 886 q 143 794 93 794 q 193 844 193 802 m 172 -102 l 172 683 l 116 683 l 116 -102 l 172 -102 "},"[":{"x_min":81.953125,"x_max":236.125,"ha":297,"o":"m 236 -63 l 236 -16 l 138 -16 l 138 1000 l 231 1000 l 231 1048 l 81 1048 l 81 -63 l 236 -63 "},"L":{"x_min":105.5625,"x_max":440.3125,"ha":494,"o":"m 440 0 l 440 56 l 161 56 l 161 991 l 105 991 l 105 0 l 440 0 "},"":{"x_min":204.1875,"x_max":304.1875,"ha":544,"o":"m 304 581 l 304 1029 l 220 1029 l 204 1002 l 279 1002 l 279 581 l 304 581 "}," ":{"x_min":0,"x_max":0,"ha":354},"%":{"x_min":59.734375,"x_max":683.390625,"ha":738,"o":"m 405 794 q 354 916 405 865 q 231 968 302 968 q 109 916 161 968 q 59 794 59 863 q 112 675 59 727 q 231 623 163 623 q 355 673 302 623 q 405 794 405 720 m 680 991 l 625 991 l 86 0 l 141 0 l 680 991 m 683 159 q 632 281 683 230 q 509 333 580 333 q 387 281 438 333 q 337 159 337 229 q 390 40 337 93 q 509 -11 441 -11 q 633 38 580 -11 q 683 159 683 86 m 348 794 q 313 713 348 748 q 231 680 273 680 q 151 715 186 680 q 116 794 116 748 q 151 876 116 841 q 231 911 184 911 q 313 876 279 911 q 348 794 348 841 m 626 159 q 590 79 626 115 q 509 45 554 45 q 429 80 463 45 q 394 159 394 113 q 429 241 394 206 q 509 276 462 276 q 591 241 556 276 q 626 159 626 206 "},"P":{"x_min":105.5625,"x_max":616.71875,"ha":681,"o":"m 616 745 q 538 925 616 858 q 347 991 461 991 l 105 991 l 105 0 l 161 0 l 161 495 l 347 495 q 538 565 461 495 q 616 745 616 632 m 559 745 q 498 602 559 655 q 345 552 437 552 l 161 552 l 161 934 l 345 934 q 495 887 438 934 q 559 745 559 836 "},"À":{"x_min":43.0625,"x_max":836.171875,"ha":879,"o":"m 476 1072 l 308 1240 l 280 1209 l 444 1044 l 476 1072 m 836 0 l 438 1023 l 43 0 l 98 0 l 213 297 l 665 297 l 779 0 l 836 0 m 641 354 l 236 354 l 438 879 l 641 354 "},"_":{"x_min":0,"x_max":511.15625,"ha":496,"o":"m 511 -294 l 511 -244 l 0 -244 l 0 -294 l 511 -294 "},"ñ":{"x_min":88.890625,"x_max":534.765625,"ha":626,"o":"m 534 743 l 494 773 q 454 740 465 744 l 437 734 l 405 734 l 356 740 l 316 757 q 304 763 309 761 q 293 769 298 766 q 220 783 255 783 q 88 712 127 783 l 127 682 q 213 727 162 727 q 263 719 244 727 l 304 702 q 411 677 345 677 q 486 697 454 677 l 508 715 l 534 743 m 534 0 l 534 348 q 477 519 534 458 q 313 580 420 580 q 148 504 187 580 l 148 573 l 91 573 l 91 0 l 148 0 l 148 348 q 191 477 148 430 q 313 525 233 525 q 477 343 477 525 l 477 0 l 534 0 "},"+":{"x_min":91.671875,"x_max":438.921875,"ha":525,"o":"m 438 338 l 438 395 l 297 395 l 297 537 l 233 537 l 233 395 l 91 395 l 91 338 l 233 338 l 233 197 l 297 197 l 297 338 l 438 338 "},"‚":{"x_min":87.5,"x_max":161.125,"ha":219,"o":"m 161 20 l 161 183 l 87 183 l 87 83 l 133 83 l 133 20 q 108 -44 133 -18 l 136 -44 q 154 -15 150 -34 q 161 20 161 1 "},"½":{"x_min":112.515625,"x_max":465.3125,"ha":544,"o":"m 312 581 l 312 1029 l 229 1029 l 212 1002 l 287 1002 l 287 581 l 312 581 m 465 491 l 465 527 l 112 527 l 112 491 l 465 491 m 418 330 q 379 416 418 383 q 287 450 338 450 q 201 419 240 450 q 156 344 163 391 l 184 344 q 287 425 211 425 q 359 397 327 425 q 391 330 391 369 q 365 252 391 293 l 147 0 l 416 0 l 416 25 l 202 25 l 331 170 q 391 243 380 226 q 418 330 418 287 "},"Æ":{"x_min":40.28125,"x_max":952.859375,"ha":1028,"o":"m 952 0 l 952 56 l 531 56 l 531 516 l 952 516 l 952 573 l 533 573 l 533 934 l 952 934 l 952 991 l 481 991 l 40 0 l 95 0 l 298 454 l 475 454 l 475 0 l 952 0 m 475 509 l 325 509 l 475 847 l 475 509 "},"Ë":{"x_min":98.625,"x_max":575.046875,"ha":657,"o":"m 480 1105 q 434 1151 469 1151 q 388 1105 388 1143 q 402 1072 390 1084 q 434 1059 419 1059 q 480 1105 480 1059 m 290 1105 q 244 1151 279 1151 q 198 1105 198 1143 q 212 1072 200 1084 q 244 1059 229 1059 q 290 1105 290 1059 m 575 0 l 575 56 l 155 56 l 155 512 l 575 512 l 575 573 l 155 573 l 155 934 l 575 934 l 575 991 l 98 991 l 98 0 l 575 0 "},"'":{"x_min":84.734375,"x_max":143.0625,"ha":228,"o":"m 143 991 l 84 991 l 98 770 l 129 770 l 143 991 "},"Š":{"x_min":55.5625,"x_max":636.15625,"ha":692,"o":"m 533 1193 l 504 1223 l 365 1086 l 226 1223 l 197 1193 l 365 1026 l 533 1193 m 636 256 q 555 454 636 375 q 479 511 526 483 q 366 569 431 540 q 227 644 262 616 q 166 768 166 697 q 225 895 166 847 q 361 941 279 941 q 487 911 438 941 q 554 843 526 888 l 608 866 q 361 997 536 997 q 183 933 255 997 q 109 768 109 870 q 181 602 109 665 q 343 511 225 563 q 445 461 405 483 q 505 420 486 438 q 579 256 579 355 q 516 98 579 152 q 348 45 455 45 q 112 223 161 45 l 55 204 q 348 -11 120 -11 q 476 8 422 -11 q 636 256 636 68 "},"ª":{"x_min":69.453125,"x_max":463.921875,"ha":518,"o":"m 429 588 l 429 933 l 394 933 l 394 873 q 256 938 341 938 q 130 887 181 938 q 80 761 80 834 q 131 634 80 686 q 256 583 181 583 q 394 648 344 583 l 394 588 l 429 588 m 463 466 l 463 506 l 69 506 l 69 466 l 463 466 m 401 761 q 358 659 401 702 q 256 616 315 616 q 155 659 198 616 q 113 761 113 702 q 156 862 113 819 q 256 905 198 905 q 358 862 315 905 q 401 761 401 819 "},"Œ":{"x_min":69.453125,"x_max":1509.84375,"ha":1595,"o":"m 1509 0 l 1509 56 l 1090 56 l 1090 512 l 1509 512 l 1509 573 l 1090 573 l 1090 934 l 1509 934 l 1509 991 l 1033 991 l 1033 743 q 844 940 968 870 q 579 1005 726 1005 q 211 862 354 1005 q 69 495 69 720 q 212 127 69 270 q 579 -13 354 -13 q 844 51 730 -13 q 1033 248 965 119 l 1033 0 l 1509 0 m 1033 495 q 907 168 1033 294 q 579 43 779 43 q 252 170 380 43 q 126 495 126 297 q 254 822 126 694 q 579 950 381 950 q 907 822 779 950 q 1033 495 1033 695 "},"ð":{"x_min":48.609375,"x_max":640.328125,"ha":692,"o":"m 640 286 q 588 609 640 488 q 443 801 544 711 l 569 880 l 513 916 l 391 840 q 245 911 320 890 l 195 862 l 266 833 l 329 801 l 208 725 l 263 688 l 383 763 q 559 488 525 661 q 344 581 470 581 q 133 495 219 581 q 48 286 48 411 q 134 75 48 161 q 344 -9 219 -9 q 555 76 469 -9 q 640 286 640 161 m 584 286 q 513 115 584 186 q 344 45 444 45 q 175 116 245 45 q 104 286 104 187 q 175 456 104 386 q 344 526 244 526 q 513 455 443 526 q 584 286 584 384 "},"T":{"x_min":62.5,"x_max":558.375,"ha":613,"o":"m 558 934 l 558 991 l 62 991 l 62 934 l 281 934 l 281 0 l 338 0 l 338 934 l 558 934 "},"š":{"x_min":40.28125,"x_max":427.8125,"ha":460,"o":"m 404 776 l 375 807 l 236 669 l 97 807 l 68 776 l 236 609 l 404 776 m 427 156 q 368 280 427 234 q 322 306 352 291 q 244 337 291 320 q 165 375 190 355 q 134 438 134 400 q 234 526 134 526 q 355 479 308 526 l 397 515 q 234 581 330 581 q 122 538 165 581 q 77 438 77 497 q 122 334 77 370 q 222 284 152 309 q 285 260 259 270 q 325 241 311 250 q 370 156 370 205 q 240 45 370 45 q 145 72 180 45 q 88 138 112 95 l 40 109 q 240 -11 106 -11 q 373 36 318 -11 q 427 156 427 81 "},"Þ":{"x_min":105.5625,"x_max":616.71875,"ha":681,"o":"m 616 504 q 538 683 616 616 q 347 750 461 750 l 161 750 l 161 991 l 105 991 l 105 0 l 161 0 l 161 254 l 347 254 q 538 323 461 254 q 616 504 616 390 m 559 504 q 498 361 559 413 q 345 311 437 311 l 161 311 l 161 693 l 345 693 q 495 645 438 693 q 559 504 559 594 "},"j":{"x_min":84.734375,"x_max":176.40625,"ha":257,"o":"m 176 722 q 130 768 165 768 q 84 722 84 759 q 98 688 86 701 q 130 676 115 676 q 176 722 176 676 m 159 -250 l 159 573 l 102 573 l 102 -250 l 159 -250 "},"1":{"x_min":241.6875,"x_max":466.703125,"ha":757,"o":"m 466 0 l 466 991 l 279 991 l 241 934 l 409 934 l 409 0 l 466 0 "},"›":{"x_min":62.5,"x_max":352.8125,"ha":390,"o":"m 352 354 l 90 616 l 62 587 l 295 354 l 68 126 l 95 97 l 352 354 "},"ä":{"x_min":48.609375,"x_max":630.609375,"ha":708,"o":"m 473 722 q 427 768 462 768 q 381 722 381 759 q 395 688 383 701 q 427 676 412 676 q 473 722 473 676 m 283 722 q 237 768 272 768 q 191 722 191 759 q 205 688 193 701 q 237 676 222 676 q 283 722 283 676 m 630 0 l 630 573 l 573 573 l 573 473 q 344 581 481 581 q 133 495 219 581 q 48 286 48 411 q 134 75 48 161 q 344 -9 219 -9 q 573 98 483 -9 l 573 0 l 630 0 m 584 286 q 513 115 584 186 q 344 45 444 45 q 175 116 245 45 q 104 286 104 187 q 175 456 104 386 q 344 526 244 526 q 513 455 443 526 q 584 286 584 384 "},"<":{"x_min":44.453125,"x_max":393.09375,"ha":439,"o":"m 393 152 l 393 215 l 145 365 l 393 515 l 393 577 l 44 365 l 393 152 "},"£":{"x_min":54.171875,"x_max":622.265625,"ha":658,"o":"m 622 69 l 584 105 q 461 47 526 47 q 406 55 431 47 l 354 79 q 304 104 334 91 l 280 113 l 259 115 q 331 216 302 158 q 359 338 359 276 l 515 338 l 515 398 l 356 398 q 309 500 343 450 l 237 608 q 172 741 183 688 l 168 786 q 350 943 168 943 q 475 911 429 943 q 531 800 531 873 l 587 800 q 516 951 587 898 q 350 998 452 998 q 177 945 245 998 q 106 786 106 888 q 130 679 106 737 l 186 580 l 237 509 q 297 398 288 440 l 152 398 l 152 338 l 301 338 q 187 112 301 226 q 113 88 154 112 q 54 37 75 66 l 90 -1 q 147 41 125 31 q 226 58 190 59 l 258 55 l 290 47 q 329 30 308 43 q 461 -8 394 -8 q 558 16 513 -8 q 593 43 577 30 q 622 69 608 55 "},"¹":{"x_min":204.1875,"x_max":304.1875,"ha":544,"o":"m 304 581 l 304 1029 l 220 1029 l 204 1002 l 279 1002 l 279 581 l 304 581 "},"t":{"x_min":43.0625,"x_max":311.140625,"ha":347,"o":"m 311 516 l 311 573 l 177 573 l 177 825 l 120 825 l 120 573 l 43 573 l 43 516 l 120 516 l 120 0 l 177 0 l 177 516 l 311 516 "},"¬":{"x_min":88.890625,"x_max":441.703125,"ha":544,"o":"m 284 581 l 284 1029 l 201 1029 l 184 1002 l 259 1002 l 259 581 l 284 581 m 441 491 l 441 527 l 88 527 l 88 491 l 441 491 m 400 113 q 313 231 400 200 q 365 272 344 237 q 383 334 383 300 q 351 416 383 384 q 269 448 319 448 q 186 416 218 448 q 154 334 154 384 q 173 270 154 302 q 222 231 191 241 q 138 113 138 200 q 173 23 138 58 q 269 -12 209 -12 q 363 22 327 -12 q 400 113 400 58 m 358 334 q 331 270 358 297 q 269 245 306 245 q 205 272 231 245 q 179 334 179 297 q 205 398 179 372 q 269 423 231 423 q 333 397 306 423 q 358 334 358 372 m 375 113 q 344 41 375 70 q 269 12 312 12 q 194 41 225 12 q 163 113 163 68 q 195 187 163 155 q 269 218 226 218 q 344 187 313 218 q 375 113 375 156 "},"ù":{"x_min":84.734375,"x_max":512.546875,"ha":596,"o":"m 338 683 l 152 869 l 122 836 l 304 651 l 338 683 m 512 215 l 512 573 l 456 573 l 456 215 q 297 44 456 44 q 177 88 215 44 q 141 215 141 133 l 141 573 l 84 573 l 84 215 q 140 48 84 108 q 297 -11 195 -11 q 456 50 400 -11 q 512 215 512 109 "},"W":{"x_min":47.21875,"x_max":1182.03125,"ha":1217,"o":"m 1182 991 l 1123 991 l 863 180 l 613 1009 l 362 180 l 102 991 l 47 991 l 365 -13 l 613 818 l 861 -13 l 1182 991 "},"ï":{"x_min":-13.890625,"x_max":268.078125,"ha":256,"o":"m 268 722 q 222 768 256 768 q 176 722 176 759 q 190 688 177 701 q 222 676 206 676 q 268 722 268 676 m 77 722 q 31 768 66 768 q -13 722 -13 757 q 31 676 -5 676 q 77 722 77 676 m 158 0 l 158 573 l 101 573 l 101 0 l 158 0 "},">":{"x_min":63.890625,"x_max":412.53125,"ha":439,"o":"m 412 365 l 63 577 l 63 515 l 309 365 l 63 215 l 63 152 l 412 365 "},"v":{"x_min":37.5,"x_max":580.609375,"ha":604,"o":"m 580 573 l 516 573 l 306 116 l 98 573 l 37 573 l 308 -25 l 580 573 "},"û":{"x_min":84.734375,"x_max":512.546875,"ha":596,"o":"m 466 688 l 298 855 l 130 688 l 159 658 l 298 795 l 437 658 l 466 688 m 512 215 l 512 573 l 456 573 l 456 215 q 297 44 456 44 q 177 88 215 44 q 141 215 141 133 l 141 573 l 84 573 l 84 215 q 140 48 84 108 q 297 -11 195 -11 q 456 50 400 -11 q 512 215 512 109 "},"Ò":{"x_min":69.453125,"x_max":1090.359375,"ha":1142,"o":"m 600 1072 l 431 1240 l 404 1209 l 568 1044 l 600 1072 m 1090 495 q 947 863 1090 720 q 579 1005 802 1005 q 211 862 354 1005 q 69 495 69 720 q 212 127 69 270 q 579 -13 354 -13 q 947 129 804 -13 q 1090 495 1090 270 m 1033 495 q 907 168 1033 294 q 579 43 779 43 q 252 170 380 43 q 126 495 126 297 q 254 822 126 694 q 579 950 381 950 q 907 822 779 950 q 1033 495 1033 695 "},"":{"x_min":33.34375,"x_max":901.46875,"ha":1039,"o":"m 33 -13 l 730 -13 l 730 43 l 138 43 l 740 955 l 693 991 l 33 -13 m 401 715 q 366 795 401 761 q 286 830 331 830 q 205 795 240 830 q 170 715 170 761 q 205 634 170 669 q 286 600 240 600 q 366 634 331 600 q 401 715 401 669 m 372 716 q 345 657 372 683 q 286 630 319 630 q 226 657 252 630 q 200 716 200 683 q 226 776 200 750 q 286 802 252 802 q 345 776 319 802 q 372 716 372 750 m 901 715 q 866 795 901 761 q 786 830 832 830 q 705 795 740 830 q 670 715 670 761 q 705 634 670 669 q 786 600 740 600 q 866 634 832 600 q 901 715 901 669 m 872 716 q 845 657 872 683 q 786 630 819 630 q 726 657 752 630 q 700 716 700 683 q 726 776 700 750 q 786 802 752 802 q 845 776 819 802 q 872 716 872 750 m 269 693 q 278 671 269 680 q 300 662 287 662 q 321 671 312 662 q 330 693 330 680 q 321 714 330 705 q 300 723 312 723 q 278 714 287 723 q 269 693 269 705 m 770 688 q 779 667 770 676 q 801 658 788 658 q 822 667 813 658 q 832 688 832 676 q 822 710 832 701 q 801 719 813 719 q 779 710 788 719 q 770 688 770 701 m 675 -193 l 650 -162 q 531 -213 598 -213 q 405 -159 459 -213 l 376 -193 q 526 -254 433 -254 q 675 -193 622 -254 "},"&":{"x_min":51.390625,"x_max":782,"ha":836,"o":"m 782 284 l 751 325 l 607 206 l 390 536 l 491 605 q 613 786 613 688 q 555 930 613 880 q 401 980 497 980 q 258 925 318 980 q 200 787 200 870 q 220 700 200 743 l 262 629 l 318 545 l 161 430 q 51 212 51 329 q 113 55 51 115 q 277 -5 177 -5 q 591 130 422 -5 l 679 0 l 744 0 l 634 165 l 782 284 m 562 786 q 555 748 561 761 l 536 712 q 504 677 522 693 q 468 647 487 661 l 362 576 l 308 658 l 269 720 q 254 787 254 747 q 298 888 254 847 q 402 929 343 929 q 519 893 475 929 q 562 786 562 858 m 563 172 q 520 139 540 152 q 486 116 501 126 q 279 48 379 48 q 156 94 204 48 q 108 212 108 138 q 197 393 108 305 q 251 438 215 411 q 344 504 287 465 l 563 172 "},"Ð":{"x_min":44.453125,"x_max":879.234375,"ha":956,"o":"m 879 497 q 761 841 879 701 q 436 991 636 991 l 105 991 l 105 527 l 44 527 l 44 470 l 105 470 l 105 0 l 436 0 q 762 150 637 0 q 879 497 879 291 m 822 497 q 701 170 822 293 q 436 56 588 56 l 161 56 l 161 470 l 337 470 l 337 527 l 161 527 l 161 936 l 436 936 q 720 802 612 936 q 822 497 822 679 "},"I":{"x_min":106.953125,"x_max":162.515625,"ha":267,"o":"m 162 0 l 162 991 l 106 991 l 106 0 l 162 0 "},"G":{"x_min":69.453125,"x_max":1090.359375,"ha":1142,"o":"m 1090 479 l 700 479 l 700 422 l 1027 422 q 916 183 1013 288 q 579 43 788 43 q 252 170 383 43 q 125 495 125 298 q 254 820 125 691 q 579 950 383 950 q 952 766 819 950 l 998 801 q 579 1005 845 1005 q 212 861 356 1005 q 69 495 69 718 q 212 127 69 270 q 579 -13 354 -13 q 958 137 815 -13 q 1090 479 1090 276 "},"`":{"x_min":126.40625,"x_max":343.078125,"ha":461,"o":"m 343 683 l 156 869 l 126 836 l 308 651 l 343 683 "},"·":{"x_min":95.84375,"x_max":187.515625,"ha":383,"o":"m 187 450 q 141 495 176 495 q 95 450 95 487 q 109 416 97 429 q 141 404 126 404 q 187 450 187 404 "},"r":{"x_min":91.671875,"x_max":393.09375,"ha":431,"o":"m 393 536 q 330 570 358 561 q 259 580 302 580 q 195 554 225 580 q 148 495 166 527 l 148 573 l 91 573 l 91 0 l 148 0 l 148 377 q 157 426 148 400 q 181 474 166 452 q 218 510 197 495 q 262 525 238 525 q 315 515 290 525 q 362 488 340 505 l 393 536 "},"¿":{"x_min":51.390625,"x_max":587.546875,"ha":651,"o":"m 388 850 q 340 898 380 898 q 291 850 291 890 q 340 801 300 801 q 388 850 388 809 m 587 73 l 534 97 q 495 38 515 63 q 456 -2 476 13 q 309 -55 393 -55 q 173 -19 229 -55 q 108 100 108 22 q 156 216 108 159 q 194 251 168 230 q 261 302 220 272 l 379 390 q 476 552 476 462 q 434 648 476 612 q 333 683 393 683 q 212 641 254 683 l 245 595 q 283 618 263 613 q 333 625 300 625 q 391 605 368 625 q 415 552 415 586 q 345 430 415 480 l 229 345 q 150 287 179 309 q 113 255 120 265 q 51 100 51 184 q 129 -62 51 -8 q 309 -111 195 -111 q 587 73 511 -111 "},"ý":{"x_min":69.453125,"x_max":1090.359375,"ha":1142,"o":"m 1090 495 q 905 898 1090 752 l 963 982 l 912 1013 l 855 933 q 579 1005 733 1005 q 211 862 354 1005 q 69 495 69 720 q 118 266 69 375 q 263 86 168 155 l 208 5 l 258 -27 l 313 52 q 579 -13 436 -13 q 947 129 804 -13 q 1090 495 1090 270 m 823 886 l 297 133 q 170 286 213 194 q 126 495 126 379 q 254 822 126 694 q 579 950 379 950 q 823 886 709 950 m 1033 518 l 1033 495 q 907 168 1033 294 q 579 43 779 43 q 347 100 454 43 l 872 851 q 1005 665 968 773 q 934 691 975 691 q 854 656 888 691 q 819 576 819 622 q 854 495 819 530 q 934 461 888 461 q 1015 495 980 461 q 1033 518 1025 505 m 1020 577 q 994 518 1020 544 q 934 491 968 491 q 875 518 901 491 q 848 577 848 544 q 875 637 848 611 q 934 663 901 663 q 994 637 968 663 q 1020 577 1020 611 m 550 576 q 515 656 550 622 q 434 691 480 691 q 354 656 388 691 q 319 576 319 622 q 354 495 319 530 q 434 461 388 461 q 515 495 480 461 q 550 576 550 530 m 520 577 q 494 518 520 544 q 434 491 468 491 q 375 518 401 491 q 348 577 348 544 q 375 637 348 611 q 434 663 401 663 q 494 637 468 663 q 520 577 520 611 m 418 554 q 427 532 418 541 q 448 523 436 523 q 470 532 461 523 q 479 554 479 541 q 470 575 479 566 q 448 584 461 584 q 427 575 436 584 q 418 554 418 566 m 919 550 q 928 528 919 537 q 950 519 937 519 q 971 528 962 519 q 980 550 980 537 q 971 571 980 562 q 950 580 962 580 q 928 571 937 580 q 919 550 919 562 m 855 209 l 830 240 q 712 188 779 188 q 586 243 640 188 l 556 209 q 707 148 613 148 q 855 209 802 148 "},"x":{"x_min":22.21875,"x_max":481.984375,"ha":501,"o":"m 481 0 l 287 290 l 477 573 l 411 573 l 252 336 l 93 573 l 26 573 l 218 288 l 22 0 l 90 0 l 252 240 l 415 0 l 481 0 "},"è":{"x_min":47.21875,"x_max":640.328125,"ha":681,"o":"m 405 683 l 219 869 l 188 836 l 370 651 l 405 683 m 640 298 q 555 504 640 425 q 344 583 472 583 q 130 498 215 583 q 47 286 47 415 q 131 73 47 158 q 344 -11 215 -11 q 441 2 398 -11 q 608 141 554 38 l 556 165 q 450 63 509 88 q 344 44 402 44 q 165 113 230 44 q 102 298 102 181 l 640 298 m 576 352 l 111 352 q 344 527 166 527 q 494 480 429 527 q 576 352 562 431 "},"º":{"x_min":63.890625,"x_max":455.59375,"ha":518,"o":"m 437 766 q 386 893 437 841 q 259 944 334 944 q 133 893 184 944 q 81 766 81 841 q 133 640 81 691 q 259 588 184 588 q 386 640 334 588 q 437 766 437 691 m 455 466 l 455 506 l 63 506 l 63 466 l 455 466 m 404 766 q 361 665 404 708 q 259 622 318 622 q 158 665 201 622 q 115 766 115 708 q 158 868 115 825 q 259 911 201 911 q 361 868 318 911 q 404 766 404 825 "},"Ø":{"x_min":69.453125,"x_max":1090.359375,"ha":1142,"o":"m 1090 495 q 905 898 1090 752 l 963 982 l 912 1013 l 855 933 q 579 1005 733 1005 q 211 862 354 1005 q 69 495 69 720 q 118 266 69 375 q 263 86 168 155 l 208 5 l 258 -27 l 313 52 q 579 -13 436 -13 q 947 129 804 -13 q 1090 495 1090 270 m 1033 495 q 907 168 1033 294 q 579 43 779 43 q 347 100 454 43 l 872 851 q 1033 495 1033 722 m 823 886 l 297 133 q 170 286 213 194 q 126 495 126 379 q 254 822 126 694 q 579 950 381 950 q 823 886 709 950 "},"÷":{"x_min":79.171875,"x_max":436.140625,"ha":503,"o":"m 302 529 q 256 575 291 575 q 211 529 211 566 q 225 495 212 508 q 256 483 241 483 q 302 529 302 483 m 436 331 l 436 402 l 79 402 l 79 331 l 436 331 m 302 202 q 256 248 291 248 q 211 202 211 240 q 225 169 212 181 q 256 156 241 156 q 302 202 302 156 "},"h":{"x_min":102.78125,"x_max":556.984375,"ha":633,"o":"m 556 -1 l 556 350 q 330 581 556 581 q 159 497 211 581 l 159 1027 l 102 1027 l 102 0 l 159 0 l 159 373 q 211 484 159 443 q 330 526 261 526 q 500 344 500 526 l 500 -1 l 556 -1 "},"\u0005":{"x_min":112.515625,"x_max":411.140625,"ha":503,"o":"m 411 737 l 386 768 q 268 716 334 716 q 141 770 195 716 l 112 737 q 262 676 169 676 q 411 737 358 676 "},"\b":{"x_min":97.234375,"x_max":327.796875,"ha":411,"o":"m 327 747 q 293 827 327 793 q 212 862 258 862 q 131 827 166 862 q 97 747 97 793 q 131 666 97 701 q 212 632 166 632 q 293 666 258 632 q 327 747 327 701 m 298 748 q 272 688 298 715 q 212 662 245 662 q 152 688 179 662 q 126 748 126 715 q 152 808 126 782 q 212 834 179 834 q 272 808 245 834 q 298 748 298 782 "},".":{"x_min":25,"x_max":116.671875,"ha":157,"o":"m 116 37 q 70 83 105 83 q 25 37 25 75 q 38 4 26 16 q 70 -8 55 -8 q 116 37 116 -8 "},";":{"x_min":56.953125,"x_max":208.34375,"ha":283,"o":"m 188 447 q 143 493 177 493 q 97 447 97 484 q 111 413 98 426 q 143 401 127 401 q 188 447 188 401 m 208 75 l 159 95 l 56 -130 l 75 -143 l 208 75 "},"f":{"x_min":59.734375,"x_max":347.25,"ha":376,"o":"m 347 962 l 347 1019 q 309 1029 326 1029 q 270 1032 301 1032 q 137 900 137 1032 l 137 573 l 59 573 l 59 516 l 137 516 l 137 0 l 194 0 l 194 516 l 330 516 l 330 573 l 194 573 l 194 883 q 272 975 194 975 l 309 970 l 347 962 "},"“":{"x_min":84.734375,"x_max":318.078125,"ha":397,"o":"m 318 783 l 318 883 l 272 883 l 272 945 q 297 1011 272 983 l 269 1011 q 244 945 244 991 l 244 783 l 318 783 m 158 783 l 158 883 l 112 883 l 112 945 q 137 1011 112 983 l 109 1011 q 84 945 84 991 l 84 783 l 158 783 "},"A":{"x_min":43.0625,"x_max":836.171875,"ha":879,"o":"m 836 0 l 438 1023 l 43 0 l 98 0 l 213 297 l 665 297 l 779 0 l 836 0 m 641 354 l 236 354 l 438 879 l 641 354 "},"6":{"x_min":40.28125,"x_max":722.28125,"ha":757,"o":"m 722 318 q 623 561 722 462 q 380 658 526 658 l 318 652 l 258 636 l 200 607 l 411 991 l 345 991 l 97 545 q 73 496 84 522 q 55 441 62 470 q 45 402 48 418 q 41 379 43 387 q 40 362 40 370 q 40 348 40 355 l 40 318 q 134 70 40 168 q 380 -23 229 -23 q 625 73 527 -23 q 722 318 722 170 m 666 318 q 584 113 666 195 q 380 31 502 31 q 176 113 258 31 q 95 318 95 194 q 179 519 95 436 q 380 602 262 602 q 583 518 500 602 q 666 318 666 431 "},"‘":{"x_min":79.171875,"x_max":152.796875,"ha":226,"o":"m 152 783 l 152 883 l 106 883 l 106 945 q 131 1011 106 983 l 104 1011 q 79 945 79 991 l 79 783 l 152 783 "},"O":{"x_min":69.453125,"x_max":1090.359375,"ha":1142,"o":"m 1090 495 q 947 863 1090 720 q 579 1005 802 1005 q 211 862 354 1005 q 69 495 69 720 q 212 127 69 270 q 579 -13 354 -13 q 947 129 804 -13 q 1090 495 1090 270 m 1033 495 q 907 168 1033 294 q 579 43 779 43 q 252 170 380 43 q 126 495 126 297 q 254 822 126 694 q 579 950 381 950 q 907 822 779 950 q 1033 495 1033 695 "},"n":{"x_min":91.671875,"x_max":534.765625,"ha":626,"o":"m 534 0 l 534 348 q 477 519 534 458 q 313 580 420 580 q 148 504 187 580 l 148 573 l 91 573 l 91 0 l 148 0 l 148 348 q 191 477 148 430 q 313 525 233 525 q 477 343 477 525 l 477 0 l 534 0 "},"3":{"x_min":102.78125,"x_max":658.390625,"ha":757,"o":"m 658 268 q 463 534 658 476 q 650 761 650 576 q 573 944 650 876 q 383 1013 497 1013 q 201 951 273 1013 q 116 782 129 890 l 181 782 q 383 957 216 957 q 526 901 470 957 q 581 761 581 847 q 530 623 581 670 q 390 575 477 575 l 331 575 l 331 493 l 390 493 q 515 444 454 493 q 595 268 595 380 q 530 112 595 177 q 373 50 465 50 q 243 95 302 50 q 163 209 181 141 l 102 209 q 197 50 126 106 q 373 -6 270 -6 q 577 69 497 -6 q 658 268 658 144 "},"9":{"x_min":41.671875,"x_max":723.671875,"ha":757,"o":"m 723 657 q 626 901 723 804 q 383 998 530 998 q 138 901 236 998 q 41 657 41 804 q 138 412 41 509 q 383 316 236 316 l 445 322 l 505 338 l 563 368 l 366 11 l 419 -13 l 666 429 q 691 479 680 454 q 708 533 701 505 q 720 596 716 565 q 723 657 723 627 m 668 657 q 586 454 668 536 q 383 372 504 372 q 179 455 259 372 q 97 657 97 540 q 179 861 97 779 q 383 943 261 943 q 587 861 505 943 q 668 657 668 780 "},"l":{"x_min":106.953125,"x_max":162.515625,"ha":267,"o":"m 162 0 l 162 1027 l 106 1027 l 106 0 l 162 0 "},"":{"x_min":0,"x_max":0,"ha":383},"4":{"x_min":63.890625,"x_max":747.28125,"ha":757,"o":"m 747 188 l 747 244 l 632 244 l 632 1005 l 63 188 l 573 188 l 573 0 l 632 0 l 632 188 l 747 188 m 573 244 l 165 244 l 573 829 l 573 244 "},"p":{"x_min":88.890625,"x_max":677.828125,"ha":713,"o":"m 677 286 q 591 497 677 411 q 381 581 506 581 q 145 465 234 581 l 145 573 l 88 573 l 88 -269 l 145 -269 l 145 106 q 381 -9 238 -9 q 593 76 506 -9 q 677 286 677 161 m 622 286 q 551 115 622 186 q 381 45 481 45 q 212 116 283 45 q 141 286 141 187 q 212 456 141 386 q 381 526 281 526 q 551 455 480 526 q 622 286 622 384 "},"‡":{"x_min":68.0625,"x_max":293.078125,"ha":340,"o":"m 293 506 l 293 545 l 200 545 l 200 752 l 293 752 l 293 790 l 200 790 l 200 1022 l 161 1022 l 161 790 l 68 790 l 68 752 l 161 752 l 161 545 l 68 545 l 68 506 l 161 506 l 161 93 l 200 93 l 200 506 l 293 506 "},"à":{"x_min":48.609375,"x_max":630.609375,"ha":708,"o":"m 394 683 l 208 869 l 177 836 l 359 651 l 394 683 m 630 0 l 630 573 l 573 573 l 573 473 q 344 581 481 581 q 133 495 219 581 q 48 286 48 411 q 134 75 48 161 q 344 -9 219 -9 q 573 98 483 -9 l 573 0 l 630 0 m 584 286 q 513 115 584 186 q 344 45 444 45 q 175 116 245 45 q 104 286 104 187 q 175 456 104 386 q 344 526 244 526 q 513 455 443 526 q 584 286 584 384 "},"Ü":{"x_min":105.5625,"x_max":680.609375,"ha":771,"o":"m 530 1105 q 484 1151 519 1151 q 438 1105 438 1143 q 452 1072 440 1084 q 484 1059 469 1059 q 530 1105 530 1059 m 340 1105 q 294 1151 329 1151 q 248 1105 248 1143 q 262 1072 250 1084 q 294 1059 279 1059 q 340 1105 340 1059 m 680 247 l 680 991 l 623 991 l 623 247 q 552 98 623 154 q 391 47 487 47 q 230 97 294 47 q 161 247 161 151 l 161 991 l 105 991 l 105 247 q 190 55 105 126 q 391 -9 270 -9 q 593 54 516 -9 q 680 247 680 126 "},"ó":{"x_min":48.609375,"x_max":640.328125,"ha":692,"o":"m 500 836 l 469 869 l 283 683 l 318 651 l 500 836 m 640 286 q 554 497 640 411 q 344 583 468 583 q 134 495 219 583 q 48 286 48 409 q 134 75 48 161 q 344 -9 219 -9 q 555 76 469 -9 q 640 286 640 161 m 584 286 q 513 115 584 186 q 344 45 444 45 q 175 116 245 45 q 104 286 104 187 q 176 455 104 383 q 344 527 247 527 q 515 456 445 527 q 584 286 584 387 "},"\u001a":{"x_min":43.0625,"x_max":613.9375,"ha":654,"o":"m 613 516 l 613 573 l 438 573 l 438 902 q 388 1002 438 965 q 279 1036 344 1036 q 166 998 212 1036 q 120 895 120 961 l 120 573 l 43 573 l 43 516 l 120 516 l 120 0 l 177 0 l 177 516 l 383 516 l 383 0 l 438 0 l 438 516 l 613 516 m 383 573 l 177 573 l 177 886 q 279 980 177 980 q 383 888 383 980 l 383 573 "},"\r":{"x_min":100.015625,"x_max":156.953125,"ha":256,"o":"m 156 0 l 156 573 l 100 573 l 100 0 l 156 0 "}}}
